<svg id="グループ_6395" data-name="グループ 6395" xmlns="http://www.w3.org/2000/svg" xmlns:xlink="http://www.w3.org/1999/xlink" width="25" height="25" viewBox="0 0 25 25">
  <defs>
    <clipPath id="clip-path">
      <rect id="長方形_193" data-name="長方形 193" width="25" height="25" transform="translate(0 0)" fill="#fff"/>
    </clipPath>
  </defs>
  <g id="グループ_383" data-name="グループ 383" transform="translate(0 0)" clip-path="url(#clip-path)">
    <path id="パス_54" data-name="パス 54" d="M8.664,18.207l6.4-6.4v2.825h2.511V7.534H10.485v2.511h2.794L6.906,16.418Zm3.893,6.906a12.209,12.209,0,0,1-4.9-.989,12.529,12.529,0,0,1-6.67-6.67A12.209,12.209,0,0,1,0,12.557a12.209,12.209,0,0,1,.989-4.9A12.529,12.529,0,0,1,7.66.989,12.209,12.209,0,0,1,12.557,0a12.209,12.209,0,0,1,4.9.989,12.529,12.529,0,0,1,6.67,6.67,12.209,12.209,0,0,1,.989,4.9,12.209,12.209,0,0,1-.989,4.9,12.529,12.529,0,0,1-6.67,6.67,12.209,12.209,0,0,1-4.9.989m0-2.511a9.7,9.7,0,0,0,7.126-2.919A9.7,9.7,0,0,0,22.6,12.557a9.7,9.7,0,0,0-2.919-7.126,9.7,9.7,0,0,0-7.126-2.919A9.7,9.7,0,0,0,5.431,5.431a9.7,9.7,0,0,0-2.919,7.126,9.7,9.7,0,0,0,2.919,7.126A9.7,9.7,0,0,0,12.557,22.6" transform="translate(0 -0.113)" fill="#fff"/>
  </g>
</svg>
