<svg xmlns="http://www.w3.org/2000/svg" width="93.886" height="42.912" viewBox="0 0 93.886 42.912">
  <path id="パス_16100" data-name="パス 16100" d="M.052,0l.39-2.418H2.08L3.692-12.74H2.08l.364-2.418h8.4a6.267,6.267,0,0,1,3.809,1,3.51,3.51,0,0,1,1.339,3A4.619,4.619,0,0,1,14.365-7.28,7,7,0,0,1,9.932-6.006H7.358l.364-2.418H9.594a2.761,2.761,0,0,0,2.054-.689,2.435,2.435,0,0,0,.676-1.781,1.609,1.609,0,0,0-.611-1.417,3.311,3.311,0,0,0-1.885-.429H7.254L5.642-2.418H7.956L7.592,0ZM20.358.26a4.1,4.1,0,0,1-2.2-.585A3.857,3.857,0,0,1,16.7-1.937,5.248,5.248,0,0,1,16.2-4.29,7.476,7.476,0,0,1,16.874-7.5a5.555,5.555,0,0,1,1.95-2.3,5.457,5.457,0,0,1,3.12-.858,4.916,4.916,0,0,1,1.989.4,3.711,3.711,0,0,1,1.521,1.209l-.312.338.286-1.69h2.886L27.17-3.224a.958.958,0,0,0,.078.78.835.835,0,0,0,.65.208h.572L28.132,0H26.546a2.594,2.594,0,0,1-2.158-.793,2.477,2.477,0,0,1-.442-1.989l.078-.494.39.7A4.113,4.113,0,0,1,22.7-.416,4.548,4.548,0,0,1,20.358.26Zm.936-2.6a2.956,2.956,0,0,0,1.755-.611,4.078,4.078,0,0,0,1.339-1.807l-.286.936.676-4.186v.6a3.049,3.049,0,0,0-1.027-.481A4.263,4.263,0,0,0,22.62-8.06a3.625,3.625,0,0,0-1.82.429,2.866,2.866,0,0,0-1.157,1.222,4.114,4.114,0,0,0-.4,1.885,2.251,2.251,0,0,0,.546,1.6A1.962,1.962,0,0,0,21.294-2.34Zm13.52,7.046a9.456,9.456,0,0,1-2.561-.325,6.047,6.047,0,0,1-1.885-.845l1.17-2.262a6.061,6.061,0,0,0,1.469.65,5.991,5.991,0,0,0,1.7.234,3.275,3.275,0,0,0,2.132-.637A2.854,2.854,0,0,0,37.8-.364l.39-2.418.572-.052A6.028,6.028,0,0,1,36.673-.91a5.7,5.7,0,0,1-2.743.65,3.389,3.389,0,0,1-2.483-.858,2.74,2.74,0,0,1-.585-2.548l.78-4.5H30l.364-2.236h4.784L34.138-4.446A1.6,1.6,0,0,0,34.32-3.2a1.362,1.362,0,0,0,1.118.39A3.228,3.228,0,0,0,37.31-3.38a4.582,4.582,0,0,0,1.43-1.742l-.312.91.624-3.952H37.414l.338-2.236h4.784L40.976-.494A6.211,6.211,0,0,1,39.013,3.38,6.238,6.238,0,0,1,34.814,4.706ZM55.25,0a2.683,2.683,0,0,1-2.171-.767,2.649,2.649,0,0,1-.4-2.2l.832-5.2H51.87l.338-2.236h4.784L55.874-3.276a1.133,1.133,0,0,0,.052.793.716.716,0,0,0,.65.247h.6L56.836,0Zm.6-11.856a1.793,1.793,0,0,1-1.326-.468,1.757,1.757,0,0,1-.468-1.3,2.009,2.009,0,0,1,.559-1.443,1.939,1.939,0,0,1,1.469-.585,1.721,1.721,0,0,1,1.313.481,1.8,1.8,0,0,1,.455,1.287,2.023,2.023,0,0,1-.546,1.456A1.919,1.919,0,0,1,55.848-11.856ZM62.92.26A3.237,3.237,0,0,1,60.138-.832a3.527,3.527,0,0,1-.572-2.7l.754-4.628H58.682L59.02-10.4h1.638l.546-3.38,3.224-.52L63.8-10.4h2.7L66.17-8.164H63.44l-.65,4.082a1.884,1.884,0,0,0,.182,1.352,1.309,1.309,0,0,0,1.144.442,2.044,2.044,0,0,0,.715-.13,3.66,3.66,0,0,0,.611-.286l.39,2.184a4.922,4.922,0,0,1-1.365.585A6.054,6.054,0,0,1,62.92.26ZM.052,27l.39-2.418H2.08L3.692,14.26H2.08l.364-2.418H15.99l-.806,5.1H12.9l.416-2.678H7.254l-.546,3.614H9.464L9.7,16.418h2.028L10.842,21.9h-2l.234-1.612H6.318l-.676,4.29H7.956L7.592,27Zm19.864.26a6.352,6.352,0,0,1-2.9-.624,4.572,4.572,0,0,1-1.911-1.755,5.045,5.045,0,0,1-.676-2.639,6.243,6.243,0,0,1,.689-2.9,5.476,5.476,0,0,1,2.028-2.171,6.118,6.118,0,0,1,3.289-.832,6.352,6.352,0,0,1,2.9.624,4.572,4.572,0,0,1,1.911,1.755,5.045,5.045,0,0,1,.676,2.639,6.243,6.243,0,0,1-.689,2.9A5.476,5.476,0,0,1,23.2,26.428,6.118,6.118,0,0,1,19.916,27.26Zm.026-2.5a2.88,2.88,0,0,0,1.6-.429,2.667,2.667,0,0,0,1-1.2,4.313,4.313,0,0,0,.338-1.755,2.559,2.559,0,0,0-.663-1.872,2.415,2.415,0,0,0-1.807-.676,2.88,2.88,0,0,0-1.6.429,2.678,2.678,0,0,0-1,1.183,4.29,4.29,0,0,0-.338,1.768,2.559,2.559,0,0,0,.663,1.872A2.415,2.415,0,0,0,19.942,24.764ZM27.768,27l1.3-8.164H27.43l.338-2.236h4.55l-.624,3.9-.182-.312a8.506,8.506,0,0,1,1.274-2.457,3.673,3.673,0,0,1,1.365-1.1,3.272,3.272,0,0,1,1.235-.286,2.141,2.141,0,0,1,1.482.468L35.7,19.772a1.8,1.8,0,0,0-.624-.455,1.917,1.917,0,0,0-.754-.143,2.033,2.033,0,0,0-1.079.351,3.139,3.139,0,0,0-1,1.105,5.46,5.46,0,0,0-.624,1.924L30.914,27Zm14.378.26a3.846,3.846,0,0,1-3.159-1.352,4.981,4.981,0,0,1-.663-4.056l.52-3.016H37.232L37.57,16.6h4.81l-.962,5.538a3.084,3.084,0,0,0,.117,1.976,1.261,1.261,0,0,0,1.183.6,2.106,2.106,0,0,0,1.56-.7A6.351,6.351,0,0,0,45.5,21.54a31.456,31.456,0,0,0,.962-4.94h3.172L48.7,22.138a3.084,3.084,0,0,0,.117,1.976,1.311,1.311,0,0,0,1.235.6,2.085,2.085,0,0,0,1.547-.65A5.24,5.24,0,0,0,52.689,22.1a18.2,18.2,0,0,0,.741-3.263H51.792L52.13,16.6h4.784l-.234,1.768a19.075,19.075,0,0,1-.858,3.6,11.176,11.176,0,0,1-1.43,2.821,5.979,5.979,0,0,1-2.054,1.833,5.662,5.662,0,0,1-2.7.637,4.125,4.125,0,0,1-2.795-.91,3.03,3.03,0,0,1-1.079-2.34l1.092-.234a10.281,10.281,0,0,1-1.326,2.054,3.882,3.882,0,0,1-1.5,1.1A5.084,5.084,0,0,1,42.146,27.26Zm20.02,0a4.1,4.1,0,0,1-2.2-.585,3.857,3.857,0,0,1-1.456-1.612,5.248,5.248,0,0,1-.507-2.353,7.476,7.476,0,0,1,.676-3.211,5.555,5.555,0,0,1,1.95-2.3,5.457,5.457,0,0,1,3.12-.858,4.916,4.916,0,0,1,1.989.4,3.711,3.711,0,0,1,1.521,1.209l-.312.338.286-1.69h2.886l-1.144,7.176a.958.958,0,0,0,.078.78.835.835,0,0,0,.65.208h.572L69.94,27H68.354a2.594,2.594,0,0,1-2.158-.793,2.477,2.477,0,0,1-.442-1.989l.078-.494.39.7a4.113,4.113,0,0,1-1.716,2.158A4.548,4.548,0,0,1,62.166,27.26Zm.936-2.6a2.956,2.956,0,0,0,1.755-.611A4.078,4.078,0,0,0,66.2,22.242l-.286.936.676-4.186v.6a3.049,3.049,0,0,0-1.027-.481,4.263,4.263,0,0,0-1.131-.169,3.625,3.625,0,0,0-1.82.429,2.866,2.866,0,0,0-1.157,1.222,4.114,4.114,0,0,0-.4,1.885,2.251,2.251,0,0,0,.546,1.6A1.962,1.962,0,0,0,63.1,24.66ZM72.176,27l1.3-8.164H71.838l.338-2.236h4.55L76.1,20.5l-.182-.312a8.507,8.507,0,0,1,1.274-2.457,3.673,3.673,0,0,1,1.365-1.1,3.272,3.272,0,0,1,1.235-.286,2.141,2.141,0,0,1,1.482.468l-1.17,2.964a1.8,1.8,0,0,0-.624-.455,1.917,1.917,0,0,0-.754-.143,2.033,2.033,0,0,0-1.079.351,3.139,3.139,0,0,0-1,1.105,5.46,5.46,0,0,0-.624,1.924L75.322,27Zm13.052.26a4.1,4.1,0,0,1-2.2-.585,3.857,3.857,0,0,1-1.456-1.612,5.248,5.248,0,0,1-.507-2.353,7.476,7.476,0,0,1,.676-3.211,5.555,5.555,0,0,1,1.95-2.3,5.457,5.457,0,0,1,3.12-.858,4.8,4.8,0,0,1,1.937.39,3.222,3.222,0,0,1,1.391,1.092l-.39.468.676-4.212H88.816l.338-2.236h4.784l-1.9,11.934a.958.958,0,0,0,.078.78.835.835,0,0,0,.65.208h.572L93,27H91.416a2.594,2.594,0,0,1-2.158-.793,2.477,2.477,0,0,1-.442-1.989l.078-.494.39.7a4.113,4.113,0,0,1-1.716,2.158A4.548,4.548,0,0,1,85.228,27.26Zm.936-2.6a2.956,2.956,0,0,0,1.755-.611,4.078,4.078,0,0,0,1.339-1.807l-.286.936.676-4.186v.6a3.049,3.049,0,0,0-1.027-.481,4.263,4.263,0,0,0-1.131-.169,3.625,3.625,0,0,0-1.82.429,2.866,2.866,0,0,0-1.157,1.222,4.114,4.114,0,0,0-.4,1.885,2.251,2.251,0,0,0,.546,1.6A1.962,1.962,0,0,0,86.164,24.66Z" transform="translate(-0.052 15.652)" fill="#cd362e"/>
</svg>
