<svg id="グループ_5940" data-name="グループ 5940" xmlns="http://www.w3.org/2000/svg" xmlns:xlink="http://www.w3.org/1999/xlink" width="10" height="14.853" viewBox="0 0 10 14.853">
  <defs>
    <clipPath id="clip-path">
      <rect id="長方形_167" data-name="長方形 167" width="10" height="14.853" fill="#fcfcfc"/>
    </clipPath>
  </defs>
  <g id="グループ_330" data-name="グループ 330" clip-path="url(#clip-path)">
    <path id="パス_43" data-name="パス 43" d="M5,0A5,5,0,0,0,0,5c0,2.819,1.4,3.419,2.941,5.294A9.235,9.235,0,0,1,5,14.853a9.235,9.235,0,0,1,2.059-4.559C8.6,8.419,10,7.819,10,5A5,5,0,0,0,5,0M5,6.728A1.728,1.728,0,1,1,6.728,5,1.728,1.728,0,0,1,5,6.728" fill="#fcfcfc"/>
  </g>
</svg>
