<svg id="グループ_5899" data-name="グループ 5899" xmlns="http://www.w3.org/2000/svg" xmlns:xlink="http://www.w3.org/1999/xlink" width="473.739" height="191.651" viewBox="0 0 473.739 191.651">
  <defs>
    <clipPath id="clip-path">
      <rect id="長方形_3593" data-name="長方形 3593" width="473.739" height="191.651" fill="none"/>
    </clipPath>
  </defs>
  <g id="グループ_5898" data-name="グループ 5898" clip-path="url(#clip-path)">
    <path id="パス_12236" data-name="パス 12236" d="M45.162,14.135c-1.061,0-2.13.026-3.165.052s-2.1.052-3.155.052h-.159a1.134,1.134,0,0,1-.9-.263,1.179,1.179,0,0,1-.083-.963L39.036,6.3c.4-2.018.593-2.758,1.169-3.125l.062-.032c.392-.2.763-.388.848-.818a.56.56,0,0,0-.086-.448A1.462,1.462,0,0,0,40.022,1.5l-.182-.018c-.835-.06-2.79-.2-3.439-.2-.36,0-1.03,0-1.179.76a1.833,1.833,0,0,0-.056.547,22.418,22.418,0,0,1-.476,3.179l-1.424,7.177c-.185.933-.6,1.3-1.5,1.3H27.013a1.134,1.134,0,0,1-.9-.263,1.18,1.18,0,0,1-.082-.963l1.587-8c.333-1.677.514-2.346,1.1-2.719.085-.053.166-.1.242-.142.313-.178.583-.333.656-.7A.556.556,0,0,0,29.534,1,1.461,1.461,0,0,0,28.527.619l-.089-.01C28.2.592,27.816.559,27.388.523,26.47.446,25.328.349,24.862.349a1.008,1.008,0,0,0-1.141.819l-.105.544A19.69,19.69,0,0,1,23.13,5.2l-1.536,7.746a1.354,1.354,0,0,1-1.553,1.3H14.93a1.137,1.137,0,0,1-.9-.263,1.181,1.181,0,0,1-.082-.963L15.3,6.2c.311-1.567.543-2.545,1.132-2.921.082-.046.159-.086.231-.124.35-.183.651-.341.727-.725a.6.6,0,0,0-.091-.492,1.419,1.419,0,0,0-.993-.388l-.089-.01c-.308-.019-.783-.057-1.3-.1-.942-.075-2.009-.159-2.482-.159a1.077,1.077,0,0,0-1.2.862,1.847,1.847,0,0,0-.056.544,28.588,28.588,0,0,1-.568,3.647L9.3,12.942c-.185.933-.606,1.3-1.505,1.3-1.092.028-2.209-.01-3.289-.046-.81-.028-1.647-.058-2.468-.058-1.278,0-1.511.6-1.851,2.318-.2,1.013-.3,1.654,0,2.019a1.2,1.2,0,0,0,1,.319c.82,0,1.668-.03,2.488-.058,1.1-.036,2.229-.074,3.316-.046a1.061,1.061,0,0,1,.845.254,1.192,1.192,0,0,1,.083.971L4.483,37.267c-.246,1.238-.524,2.51-.794,3.74s-.55,2.506-.8,3.747c-.15.754-.19,1.329.1,1.685.309.377.906.446,1.97.446,1.949,0,2.322-.326,2.666-1.507.272-.631.438-.869,1.112-.869H31.979c1.03,0,2.074.026,3.083.052s2.057.052,3.092.052c1.339,0,1.471-.663,1.789-2.266.218-1.1.339-1.706.035-2.076A1.175,1.175,0,0,0,39,39.958c-1.036,0-2.1.039-3.12.077s-2.077.077-3.106.077H9.8a1.105,1.105,0,0,1-.884-.271,1.15,1.15,0,0,1-.094-.954l3.748-18.9a1.354,1.354,0,0,1,1.553-1.3h5.111a1.137,1.137,0,0,1,.9.262,1.184,1.184,0,0,1,.082.963l-1.249,6.3c-.223,1.125-.477,2.273-.722,3.383-.251,1.137-.51,2.312-.743,3.484-.134.671-.167,1.185.1,1.513.287.35.828.411,1.857.411,1.045,0,1.676,0,2.264-.59.394-.531.576-.606.873-.648h5.873c.431.04.505.188.685.683.322.556,1,.556,2.029.556,1.714,0,2.3-.139,2.626-1.8.227-1.145.428-2.29.622-3.4.191-1.087.388-2.212.606-3.314l1.29-6.506a1.354,1.354,0,0,1,1.552-1.3h.156c1.056,0,2.112.027,3.135.052s2.084.052,3.144.052c1.274,0,1.455-.583,1.788-2.265.215-1.085.322-1.716.023-2.08a1.156,1.156,0,0,0-.96-.31M31.877,19.913l-1.685,8.5c-.271.895-.673,1.212-1.536,1.212H24.009a1.194,1.194,0,0,1-.945-.293.989.989,0,0,1-.1-.83l1.693-8.519a1.353,1.353,0,0,1,1.551-1.3h4.747a1.06,1.06,0,0,1,.844.254,1.192,1.192,0,0,1,.083.971" transform="translate(0 -0.092)" fill="#cd362e"/>
    <path id="パス_12237" data-name="パス 12237" d="M74.428,35.417c1.993,0,10.146-3.958,12.028-4.985a.8.8,0,0,1,.4-.127.387.387,0,0,1,.3.094.63.63,0,0,1,.093.458C85.869,37.248,82.39,40.978,76.3,42.592c-.073.019-.15.037-.227.056-.569.134-1.348.317-1.5,1.068a3.693,3.693,0,0,0,.752,2.475,1.416,1.416,0,0,0,1.086.586c1.3,0,4.3-1.349,5.55-2.038,5.252-2.925,8.339-7.378,9.709-14a1.147,1.147,0,0,1,.581-.666c.046-.025.1-.049.148-.074.3-.148.673-.333.75-.724a.476.476,0,0,0-.08-.395c-.238-.319-.887-.412-2.332-.549-.142,0-.184-.038-.193-.049a.186.186,0,0,1-.01-.138l0-.013a.344.344,0,0,1,.2-.238,70.7,70.7,0,0,0,6.215-4.928,1.292,1.292,0,0,1,.932-.41.941.941,0,0,1,.715.347,40.391,40.391,0,0,0,4.974,4.977.235.235,0,0,1,.075.187c-.031.156-.229.213-.355.213h-.1c-.5-.008-1.184-.007-1.337.769l-.106.546a16.607,16.607,0,0,1-.415,3.12l-1.556,7.85c-.159.8-.349,1.624-.533,2.424s-.375,1.628-.534,2.43c-.142.713-.105,1.134.119,1.408.316.384.963.413,1.913.413,1.719,0,2.349-.148,2.677-1.8.159-.8.281-1.619.4-2.408s.24-1.6.4-2.395l1.3-6.557c.184-.926.357-1.8.586-2.706.2-.492.412-.658.86-.658h.007a1.039,1.039,0,0,1,.671.231c1.194.734,7.329,4.158,8.934,4.158,1.154,0,2.544-2.17,2.706-2.988.176-.889-.655-1.163-1.388-1.405l-.14-.046a36.085,36.085,0,0,1-13.977-8.448c-.059-.038-.077-.115-.044-.223.057-.285.354-.316.479-.316h6.9c.349.036.5.236.777.65l.111.16c.319.4,1.217.431,2.034.431,1.73,0,2.306-.191,2.544-1.388.114-.578.2-1.16.289-1.722s.167-1.1.273-1.634l2.048-10.326c.1-.484.207-.981.319-1.483s.233-1.041.336-1.564a2.164,2.164,0,0,0-.231-1.861c-.432-.525-1.215-.631-2.339-.631-.724,0-1.438.013-2.152.026s-1.422.026-2.144.026H91.187c-.721,0-1.441-.013-2.16-.026s-1.443-.026-2.167-.026c-1.862,0-3.018.4-3.42,2.421-.1.527-.183,1.057-.259,1.57s-.147,1-.243,1.476L80.89,18.105c-.082.412-.268,1.2-.433,1.894-.148.62-.284,1.2-.336,1.462a1.248,1.248,0,0,0,.113,1.053c.281.342.88.407,1.888.407a4.121,4.121,0,0,0,2.208-.409c.164-.146.3-.27.409-.375.41-.384.5-.455.779-.455h6.607a.4.4,0,0,1,.306.1c.013.017.055.067.028.2a.53.53,0,0,1-.229.346c-5.306,4.141-10.708,6.438-17.708,8.8l-.2.071c-.544.192-1.288.454-1.426,1.151a3.825,3.825,0,0,0,.707,2.6,1.084,1.084,0,0,0,.821.456m28.6-26.277.361-1.819a1.122,1.122,0,0,1,.026-.13,1.289,1.289,0,0,1,1.276-.949H114a.961.961,0,0,1,.1,0,.788.788,0,0,1,.617.294.855.855,0,0,1,.132.728l-.361,1.817a.971.971,0,0,1-.033.151,1.308,1.308,0,0,1-1.3.931h-9.328a.98.98,0,0,1-.174,0,.717.717,0,0,1-.541-.3.835.835,0,0,1-.081-.717m-1.519,7.654,0-.011.361-1.824a1.105,1.105,0,0,1,.027-.151,1.324,1.324,0,0,1,1.227-.976h9.362c.042,0,.083,0,.125,0a.789.789,0,0,1,.607.313.886.886,0,0,1,.112.758l-.359,1.812c-.006.035-.014.069-.023.1a1.343,1.343,0,0,1-1.333.983h-9.307a1.2,1.2,0,0,1-.126,0,.748.748,0,0,1-.572-.3.833.833,0,0,1-.1-.71M87.122,9.141l.36-1.814c0-.027.01-.054.015-.08a1.331,1.331,0,0,1,1.287-1h9.309c.035,0,.069,0,.1,0a.788.788,0,0,1,.617.294.848.848,0,0,1,.133.722v.005l-.362,1.817a1,1,0,0,1-.032.15,1.321,1.321,0,0,1-1.321.93H87.923a.82.82,0,0,1-.7-.3.839.839,0,0,1-.1-.72M86.411,17.8a.679.679,0,0,1-.077,0,.775.775,0,0,1-.6-.294.849.849,0,0,1-.124-.724l.361-1.82a1.024,1.024,0,0,1,.018-.1,1.342,1.342,0,0,1,1.294-1.027h9.306a1.185,1.185,0,0,1,.125,0,.793.793,0,0,1,.606.313.875.875,0,0,1,.114.747l0,.01-.361,1.811a1,1,0,0,1-.023.1,1.337,1.337,0,0,1-1.332.984Z" transform="translate(-19.121 -0.607)" fill="#cd362e"/>
    <path id="パス_12238" data-name="パス 12238" d="M156.428,31.244h0a1.379,1.379,0,0,0,.946-.584,56,56,0,0,1,5.3-5.711c2.453-2.21,8.215-4.909,11.445-4.909a2.107,2.107,0,0,1,1.57.53,2.286,2.286,0,0,1,.5,1.716,9.356,9.356,0,0,1-.128,1.665c-.1.5-.517.786-1.107,1.053-.919.384-1.861.88-2.771,1.36-.326.172-.649.342-.968.506-4.172,2.148-8.32,4.621-9.211,9.112a6.073,6.073,0,0,0,3.824,7.227,17.485,17.485,0,0,0,7.628,1.255,70.638,70.638,0,0,0,10.039-.676c.987-.235,1.231-.708,1.508-2.105.207-1.046.394-2.2-.022-2.71a.686.686,0,0,0-.558-.247h0a7.328,7.328,0,0,0-1.042.16,39.647,39.647,0,0,1-9.691,1.234h-.012c-3.352,0-5.642-.63-6.621-1.823a2.7,2.7,0,0,1-.487-2.346c.524-2.64,3.8-4.33,5.979-5.456a6.955,6.955,0,0,1,1.875-.8.4.4,0,0,1,.318.105.785.785,0,0,1,.04.6c-.138.695-.3,1.4-.465,2.086s-.329,1.4-.468,2.1a1.219,1.219,0,0,0,.158,1.053c.35.426,1.075.458,2.142.458,1.792,0,2.115-.263,2.461-2.007.19-.953.368-1.918.547-2.884s.359-1.942.549-2.9c.2-1.007.513-1.275,1.481-1.671q1.282-.481,2.571-.981c1.2-.462,2.443-.94,3.687-1.4a4.876,4.876,0,0,1,.609-.184,4.056,4.056,0,0,0,.414-.119c1.221-.336,2.033-.614,2.185-1.381a6.423,6.423,0,0,0-.677-3.687.733.733,0,0,0-.6-.3,4.99,4.99,0,0,0-1.437.53l-.09.044c-5.721,2.74-6.731,3.037-6.9,3.037a.311.311,0,0,1-.242-.083c-.144-.156-.109-.557-.093-.756a5.232,5.232,0,0,0-1.112-4.027,5.059,5.059,0,0,0-3.847-1.277h0a17.88,17.88,0,0,0-6.942,1.828,2.092,2.092,0,0,1-.8.238.174.174,0,0,1-.151-.055.176.176,0,0,1-.044-.116,15.632,15.632,0,0,1,1.955-2.466c.222-.252.434-.518.621-.778l.031-.038c1.036-1.235,1.223-1.458,2.3-1.6,3.079-.329,6.415-.853,10.2-1.6l.322-.063c1.058-.2,2.374-.457,2.546-1.321.005-.025.429-2.522-.279-3.384a.776.776,0,0,0-.625-.3h0a5.706,5.706,0,0,0-1.338.318,50.219,50.219,0,0,1-7.128,1.592.4.4,0,0,1-.28-.071.238.238,0,0,1-.027-.133,6.139,6.139,0,0,1,.81-1.3L177,6.588c.876-1.1,1.171-1.47,2.017-1.791.267-.1.765-.286.859-.758a.159.159,0,0,0,0-.041.663.663,0,0,0-.2-.452A12.4,12.4,0,0,0,175.553.979c-.583,0-.78.429-1.009.925l-.075.161a36.437,36.437,0,0,1-3.88,6.369c-.707.909-1.618.909-5.006.909-.845,0-1.727-.032-2.506-.061-.6-.022-1.12-.041-1.5-.041-1.163,0-1.433.475-1.757,2.11-.283,1.427-.294,1.981-.047,2.283a1.037,1.037,0,0,0,.85.261c1.157,0,2.2-.072,3.031-.13.592-.041,1.1-.077,1.5-.077.668,0,.841.123.884.176a.122.122,0,0,1,.022.11,1.874,1.874,0,0,1-.509.858c-1.359,1.634-8.3,9.923-11.355,12.617a2.342,2.342,0,0,0-.828,1.044,1.407,1.407,0,0,0,.432,1.1,4.722,4.722,0,0,0,2.624,1.651" transform="translate(-40.241 -0.257)" fill="#cd362e"/>
    <path id="パス_12239" data-name="パス 12239" d="M224.829,25.306a2.128,2.128,0,0,0,1.272-.494A34.013,34.013,0,0,0,233.789,18a1.435,1.435,0,0,1,.839-.55l.027-.007c.032-.007.074-.012.122-.018.324-.045.926-.128,1.027-.637s-.387-.768-.677-.925l-.083-.045a15.155,15.155,0,0,0-2.784-1.255.179.179,0,0,0-.058-.01,1.2,1.2,0,0,0-.885.521c-.048.052-.094.1-.16.173a26.43,26.43,0,0,1-7.2,6.566l-.2.128c-.491.311-1.1.7-1.2,1.178a1.5,1.5,0,0,0,.423,1.085,2.827,2.827,0,0,0,1.852,1.1" transform="translate(-58.395 -3.82)" fill="#cd362e"/>
    <path id="パス_12240" data-name="パス 12240" d="M227.006,9.508c1.041,0,2.088-.027,3.1-.052.991-.025,2.016-.051,3.014-.051h7.332a1.038,1.038,0,0,1,.819.239,1.063,1.063,0,0,1,.08.867c-1.058,3.546-2.376,6.252-5.669,8.786a25.931,25.931,0,0,1-8.058,4.01c-.544.153-1.221.344-1.373,1.112a2.889,2.889,0,0,0,.58,2.169,1.432,1.432,0,0,0,1.112.582c1.129,0,3.932-1.277,5.086-1.826,6.67-3.246,10.54-7.788,12.547-14.725a1.463,1.463,0,0,1,1.638-1.212h3.667a1.107,1.107,0,0,1,.884.271,1.155,1.155,0,0,1,.094.954l-1.31,6.606c-.419,2.132-.561,2.85-2.945,2.85-.527,0-1.006-.037-1.391-.067-.251-.02-.457-.036-.6-.036a1.2,1.2,0,0,0-1.284,1.027,4.763,4.763,0,0,0,.146,2.528c.314.842,1.4.842,2.2.842,3.127,0,7.019,0,7.919-4.538.1-.521.179-1.036.252-1.533s.148-1,.249-1.514L256.3,10.7a1.353,1.353,0,0,1,1.551-1.3h6.3c1.038,0,2.071.027,3.071.052.982.025,2,.051,3,.051,1.235,0,1.413-.631,1.7-2.059.189-.953.283-1.508.013-1.837a1.2,1.2,0,0,0-.952-.294c-1,0-2.029.026-3.023.051-1.01.025-2.054.052-3.091.052H252.994a1.087,1.087,0,0,1-.86-.256,1.043,1.043,0,0,1-.086-.866l.053-.271c.226-1.159.33-1.688.964-2.035l.1-.062c.378-.235.675-.42.747-.782a.618.618,0,0,0-.083-.485A1.085,1.085,0,0,0,253.1.311C252.369.2,249.723,0,249.06,0a1.071,1.071,0,0,0-1.243.82,2.177,2.177,0,0,0-.029.283,2.047,2.047,0,0,1-.025.26,19.13,19.13,0,0,1-.374,2.916,1.268,1.268,0,0,1-1.469,1.143H233.837c-1,0-2.036-.026-3.032-.051s-2.031-.052-3.041-.052c-1.235,0-1.355.6-1.644,2.058-.185.936-.3,1.5-.02,1.839a1.1,1.1,0,0,0,.907.293" transform="translate(-59.285)" fill="#cd362e"/>
    <path id="パス_12241" data-name="パス 12241" d="M218.55,53.693h0a57.121,57.121,0,0,0,6.45-.672,54.679,54.679,0,0,0,14.543-4.094,3.413,3.413,0,0,1,1.115-.294,1.748,1.748,0,0,1,.977.335,37.915,37.915,0,0,0,17.5,5.242c1.637,0,2.525-1.554,2.789-2.885a1.38,1.38,0,0,0-.11-1.161c-.249-.312-.7-.324-1.261-.339-.111,0-.229-.006-.35-.011A38.579,38.579,0,0,1,245.9,46.363a.4.4,0,0,1-.254-.492l0-.01a.964.964,0,0,1,.416-.561c1.758-1.137,8.429-6.018,8.816-7.968a3.288,3.288,0,0,0-.575-2.259,1.957,1.957,0,0,0-1.592-.7c-.744,0-1.491.013-2.244.026s-1.531.027-2.312.027H240a.4.4,0,0,1-.305-.1.184.184,0,0,1-.041-.156,2.2,2.2,0,0,1,1.164-1.136c.052-.017.117-.033.187-.052.4-.1,1-.26,1.1-.76a.56.56,0,0,0-.145-.473c-.634-.772-3.457-1.5-3.56-1.5-.472,0-.783.355-1.335,1.109-3.549,4.889-10.7,8.533-15.63,9.482-.659.105-1.763.283-1.94,1.176a3.479,3.479,0,0,0,.552,2.363,1.1,1.1,0,0,0,.873.439c2.974,0,8.389-2.672,11.3-4.464a1.829,1.829,0,0,1,.77-.236.807.807,0,0,1,.707.513A14.75,14.75,0,0,0,236.734,45c.027.044.055.086.081.126a.571.571,0,0,1,.143.5c-.048.243-.229.42-.6.589-5.144,2.154-12.513,3.138-17.7,3.342l-.13.009c-.711.046-1.684.11-1.895,1.172a2.931,2.931,0,0,0,.389,2.323,1.866,1.866,0,0,0,1.528.634M237.8,38.83c.072-.361.33-.466.727-.524h8.892a3.282,3.282,0,0,1,.791.04c-.058.289-.847,1.258-5.494,4.5l-.111.077a2.252,2.252,0,0,1-1.016.381,1.226,1.226,0,0,1-.862-.413,15.6,15.6,0,0,1-2.882-3.722.542.542,0,0,1-.045-.343" transform="translate(-56.823 -7.936)" fill="#cd362e"/>
    <path id="パス_12242" data-name="パス 12242" d="M273.863,15.391c-.339-.385-.609-.689-1.087-.689a4.528,4.528,0,0,0-2.944,2.368,1.326,1.326,0,0,0,.6,1.244,52.948,52.948,0,0,1,5.665,7.518l.088.138c.217.344.486.771,1.038.771h0c.859,0,2.919-1.463,3.1-2.369.249-1.252-5.486-7.993-6.287-8.783Z" transform="translate(-70.799 -3.858)" fill="#cd362e"/>
    <path id="パス_12243" data-name="パス 12243" d="M321.015,7.378l1.115.4c1.671.591,3.25,1.149,4.822,1.812a9.562,9.562,0,0,0,2.537.954c1.382,0,2.491-3.726,2.5-3.763a.868.868,0,0,0-.775-1.089h-.005c-.482-.143-1.906-.651-3.413-1.189-2.982-1.064-4.958-1.761-5.247-1.761-1.207,0-2.495,3.226-2.53,3.4-.172.868.594,1.113,1,1.242" transform="translate(-83.966 -0.718)" fill="#cd362e"/>
    <path id="パス_12244" data-name="パス 12244" d="M298.833,48.089c.561,0,1.249-.772,1.752-1.337l.1-.114c2.144-2.2,7.84-8.049,11.109-10.777.886-.717,3.968-3.057,6.437-3.057a1.747,1.747,0,0,1,1.412.457,1.975,1.975,0,0,1,.169,1.64,26.632,26.632,0,0,1-1.02,3.331,29.852,29.852,0,0,0-1.263,4.008,4.868,4.868,0,0,0,.807,4.164,5.276,5.276,0,0,0,4.205,1.685h0a26.84,26.84,0,0,0,9.663-2.5c.925-.546,1.4-2.318,1.6-3.324l.018-.088c.164-.8.293-1.671,0-2.029a.434.434,0,0,0-.4-.164,4.7,4.7,0,0,0-1.527.693c-2.254,1.384-5.57,2.864-8.12,2.864a1.64,1.64,0,0,1-1.325-.425,1.617,1.617,0,0,1-.162-1.362,35.358,35.358,0,0,1,1.081-3.644,35.226,35.226,0,0,0,1.168-3.788,4.891,4.891,0,0,0-.407-3.648.16.16,0,0,0-.027-.037,4.515,4.515,0,0,0-3.5-1.552,4.188,4.188,0,0,0-.836.057,5.56,5.56,0,0,1-.863.15.283.283,0,0,1-.2-.065.065.065,0,0,1-.019-.046,1.507,1.507,0,0,1,.507-.651c.775-.69,1.48-1.33,2.149-1.937a61.907,61.907,0,0,1,8.335-6.683l.089-.074a1.6,1.6,0,0,0,.644-.807,5.91,5.91,0,0,0-1.379-3.261,1.712,1.712,0,0,0-1.207-.78h0a5.147,5.147,0,0,0-1.275.264,118.031,118.031,0,0,1-18.028,3.659,2.1,2.1,0,0,0-.329.031,1.47,1.47,0,0,1-.218.021l-.07.008c-.921.1-1.648.178-1.807,1a4.081,4.081,0,0,0,.332,1.823l.1.286c.519,1.5.659,1.9,1.421,1.9.7,0,8.479-1.893,9.574-2.177a29.5,29.5,0,0,1,3.8-.922.12.12,0,0,1,.091.047.173.173,0,0,1,.008.146c-.069.35-.62.808-.95,1.084-1.024.881-2.059,1.868-3.06,2.822-.653.623-1.3,1.241-1.948,1.831-4.364,4.127-8.99,8.382-14.145,13.01-1.457,1.346-2.974,2.655-4.431,3.913a2.44,2.44,0,0,0-.843,1.144c-.127.639.509,1.5.788,1.84a3.424,3.424,0,0,0,2,1.376" transform="translate(-77.678 -3.932)" fill="#cd362e"/>
    <path id="パス_12245" data-name="パス 12245" d="M369.554,35.787c.341,0,.6-.253.931-.573l.154-.148c2.056-1.921,4.283-3.963,6.636-5.882a19.266,19.266,0,0,1,12.4-4.913h.136c3.007,0,5.371.862,6.657,2.427a5.524,5.524,0,0,1,.931,4.788c-1.241,6.253-8.033,8.785-9.079,8.785h-.048a.206.206,0,0,1-.16-.08.244.244,0,0,1-.039-.174,7.521,7.521,0,0,0,.476-1.333,4.641,4.641,0,0,0-1.026-3.956,7.166,7.166,0,0,0-5.362-2.46,7.807,7.807,0,0,0-7.464,5.886,4.895,4.895,0,0,0,1.637,4.713c1.6,1.421,3.92,2.112,7.1,2.112,8.005,0,17.036-4.681,18.81-13.626a8.94,8.94,0,0,0-1.6-7.664c-1.882-2.292-5.14-3.607-8.939-3.607a12.626,12.626,0,0,0-3.059.367,6.99,6.99,0,0,1-.88.15.29.29,0,0,1-.246-.08.3.3,0,0,1-.082-.2,1.559,1.559,0,0,1,.462-.693c1.148-1.039,7.036-6.315,10.155-8.134l.052-.028c.662-.353,1.12-.653,1.193-.962l0-.016a4.979,4.979,0,0,0-1.314-2.866A3.542,3.542,0,0,0,395.44,6.09h0a8.389,8.389,0,0,0-1.935.472,53.889,53.889,0,0,1-13.334,1.9h-.929c-1.5,0-1.882.133-2.142,1.44-.132.668-.517,2.9.105,3.662a.734.734,0,0,0,.592.275h0a12.333,12.333,0,0,0,1.347-.209q1.089-.2,2.183-.4c2.623-.471,5.337-.959,7.974-1.569a6.985,6.985,0,0,1,.971-.15.525.525,0,0,1,.394.125.244.244,0,0,1,.035.223,1.7,1.7,0,0,1-.609.825c-.06.055-.119.108-.168.156q-1.767,1.56-3.524,3.128c-5.778,5.14-11.754,10.455-18.067,15.149-.085.071-.182.145-.285.223-.438.336-.983.754-1.087,1.276a3.345,3.345,0,0,0,.929,2.056c.34.414,1.007,1.108,1.663,1.108m14.686,3.448c-.147.741-.732,1.917-1.675,1.917a4.692,4.692,0,0,1-3.4-1.349,1.822,1.822,0,0,1-.4-1.574,2.924,2.924,0,0,1,2.706-2.184h.19a2.6,2.6,0,0,1,2.054.9,2.7,2.7,0,0,1,.516,2.285" transform="translate(-96.287 -1.598)" fill="#cd362e"/>
    <path id="パス_12246" data-name="パス 12246" d="M442.42,42.161c2.27,0,4.667-1.25,7.331-3.822,6.919-6.731,10.482-17.5,11.991-23.321l.03-.121c.237-.955.462-1.857,1.585-1.858a9.443,9.443,0,0,1,2.039.457c5.149,1.683,7.687,6.749,6.467,12.905-1.362,6.867-7.223,12.323-14.932,13.9-.071.015-.148.029-.23.044-.518.091-1.227.217-1.347.823a4.216,4.216,0,0,0,1.064,2.728,1.979,1.979,0,0,0,1.343.85c1.2,0,4.62-1.38,5.775-1.927,6.81-3.122,12.041-9.62,13.326-16.55a14.922,14.922,0,0,0-2.608-12.638.087.087,0,0,0-.012-.017c-2.8-3.367-6.926-5.075-12.265-5.075-11.928,0-23.151,9.478-25.55,21.576a15.706,15.706,0,0,0,.131,7.271c.744,2.309,2.675,4.775,5.863,4.775m-1.253-12.184c1.217-6.9,6.685-13.227,13.606-15.757l.023-.008a9.023,9.023,0,0,1,1.9-.554.433.433,0,0,1,.358.139.837.837,0,0,1,.082.67,51.5,51.5,0,0,1-6.1,15.18c-1.537,2.63-5.129,7.6-7.718,7.6a1.814,1.814,0,0,1-1.481-.7c-1.169-1.424-1.044-4.71-.673-6.575" transform="translate(-114.423 -2.24)" fill="#cd362e"/>
    <path id="パス_12247" data-name="パス 12247" d="M513.768,45.514h0a6.874,6.874,0,0,0,1.739-.476c1.073-.439,1.851-.842,2.09-2.045.065-.329.12-.67.177-1.018s.119-.731.191-1.1a26.03,26.03,0,0,1,2.447-5.559c.483-.921.94-1.791,1.258-2.494a6.557,6.557,0,0,0,.474-1.036.881.881,0,0,0-.237-.726,2.066,2.066,0,0,0-1.35-.733c-.569,0-1.2,1.034-1.856,2.186-.1.172-.182.322-.25.433-.6,1-1.337,2.235-1.7,2.235a.118.118,0,0,1-.1-.056c-.613-.746.089-5.541.4-7.107a60.484,60.484,0,0,1,5.828-15.9c.985-1.7,1.283-2,2.431-2.5a.837.837,0,0,0,.632-.654c.1-.524-.457-.832-.758-1l-.047-.026-.019-.01-.356-.184a16.673,16.673,0,0,0-3.5-1.587c-.408,0-.749.338-.953.936-.43.96-.915,1.937-1.383,2.882-.24.484-.48.967-.713,1.45a71.105,71.105,0,0,0-5.73,16.621c-1.215,6.129-1.233,11.274-.052,15.733.154.606.442,1.732,1.328,1.732" transform="translate(-134.235 -1.616)" fill="#cd362e"/>
    <path id="パス_12248" data-name="パス 12248" d="M546.8,33.447l-.242-.124c-.732-.37-1.1-.556-.935-1.6.241-1.775,1.536-10.085,1.8-11.4.215-1.084.847-1.24,1.857-1.4l.224-.032c5.37-.774,6.814-.982,7.052-2.18.063-.316.347-2.724-.277-3.484a.635.635,0,0,0-.506-.248h0a2.281,2.281,0,0,0-.859.215,46.317,46.317,0,0,1-5.686,1.334.652.652,0,0,1-.528-.177c-.221-.27-.115-.923,0-1.514l.28-1.415a8.411,8.411,0,0,1,1.243-3.551l.115-.113a1.689,1.689,0,0,0,.563-.808.617.617,0,0,0-.469-.721.231.231,0,0,0-.038-.012,37.047,37.047,0,0,0-4.648-.828.75.75,0,0,0-.207,0,.872.872,0,0,0-.742.766l-.1.491c-.069,1.351-.6,6.419-.862,7.719-.2,1.005-1.221,1.046-3.354,1.04h-.471c-1.944,0-4.207-.122-6.711-.359a6.883,6.883,0,0,0-1.045-.105c-.874,0-1.027.772-1.139,1.336-.426,2.146-.373,3.183.207,3.369a40.888,40.888,0,0,0,5.185.259c1.444,0,3.736-.111,4.969-.171.438-.021.736-.035.8-.035a.712.712,0,0,1,.569.2c.238.276.156.82.1,1.218-.013.088-.025.169-.031.232-.257,1.786-1.076,7.245-1.429,9.027-.125.628-.416.884-1.013.885a1.643,1.643,0,0,1-.475-.051,19.465,19.465,0,0,0-2.47-.156c-3.794,0-8.169,1.626-9.074,6.19a4.717,4.717,0,0,0,.868,4.093c1.222,1.488,3.61,2.376,6.387,2.376,2.422,0,6.719-.639,8.308-4.931.142-.442.3-.7.657-.7.629,0,2.975,2.275,3.663,3.133.267.335.715.9,1.323.9,1.062,0,2.982-2.034,3.2-3.144.4-2.034-6-5.486-6.064-5.519m-6.362,3.02c-.429,2.158-1.786,3.208-4.151,3.208a4.655,4.655,0,0,1-3.3-1.159,1.391,1.391,0,0,1-.29-1.2c.322-1.622,2.947-2.227,4.522-2.227a10.53,10.53,0,0,1,2.889.453.756.756,0,0,1,.334.928" transform="translate(-138.633 -1.412)" fill="#cd362e"/>
    <path id="パス_12249" data-name="パス 12249" d="M44.041,127.215c-1.094,0-2.21.04-3.288.078-1.056.038-2.149.077-3.2.077H8.534c-1.081,0-2.174-.04-3.231-.077s-2.157-.077-3.245-.077c-1.339,0-1.513.878-1.829,2.472-.239,1.2-.35,1.849-.04,2.227a1.192,1.192,0,0,0,1,.318c1.086,0,2.183-.027,3.242-.053s2.151-.052,3.233-.052H36.685c1.05,0,2.129.026,3.174.052,1.065.027,2.167.053,3.26.053,1.391,0,1.545-.775,1.881-2.473.231-1.162.346-1.837.03-2.222a1.192,1.192,0,0,0-.989-.322" transform="translate(0 -33.381)" fill="#cd362e"/>
    <path id="パス_12250" data-name="パス 12250" d="M122.288,116.973c-1.029,0-2.082.027-3.1.052-1.035.026-2.105.053-3.168.053H104.3a1.107,1.107,0,0,1-.884-.271,1.155,1.155,0,0,1-.094-.955l.819-4.131a1.376,1.376,0,0,1,1.551-1.3h7.281c.875,0,1.774.027,2.644.052s1.774.052,2.655.052c1.189,0,1.36-.624,1.665-2.162.2-1.007.3-1.593.017-1.936a1.115,1.115,0,0,0-.935-.3c-.881,0-1.78.027-2.649.052s-1.763.051-2.638.051h-7.281a1.1,1.1,0,0,1-.884-.271,1.153,1.153,0,0,1-.094-.958c.451-2.533.611-3.281,1.289-3.694l.215-.124c.4-.231.671-.383.749-.774a.6.6,0,0,0-.087-.464,1.1,1.1,0,0,0-.731-.375c-.209-.016-.643-.059-1.157-.109-1.153-.113-2.588-.253-3.02-.253-.85,0-1.117.446-1.192.82a1.688,1.688,0,0,0-.024.249,1.9,1.9,0,0,1-.03.294,20.156,20.156,0,0,1-.5,3.537l-2.314,11.667a1.353,1.353,0,0,1-1.552,1.3H91.646a1.134,1.134,0,0,1-.9-.263,1.183,1.183,0,0,1-.083-.964l1.813-9.14c.355-1.791.545-2.5,1.133-2.877.094-.06.179-.114.257-.162.333-.205.574-.353.639-.681a.638.638,0,0,0-.1-.533c-.249-.325-.809-.362-1.351-.4l-.213-.017c-.9-.1-2.249-.253-3.071-.253-.508,0-1.048.1-1.191.82a2.176,2.176,0,0,0-.029.283,1.809,1.809,0,0,1-.025.248c-.126,1.1-.284,2.472-.549,3.806l-1.752,8.833a1.353,1.353,0,0,1-1.551,1.3c-.921,0-1.856-.027-2.761-.052-.926-.026-1.883-.052-2.847-.052-1.236,0-1.379.722-1.665,2.163-.2.988-.314,1.585-.025,1.938a1.069,1.069,0,0,0,.89.3c1.029,0,2.082-.026,3.1-.051,1.035-.027,2.105-.053,3.168-.053H96.465c.334,0,.453.1.513.17.336.409.076,1.72-.4,4.1l-.839,4.235c-.544,2.742-.657,3.313-3.707,3.313-.441,0-.869-.034-1.247-.064-.277-.021-.516-.041-.694-.041-.951,0-1.209.642-1.347,1.34a5.812,5.812,0,0,0,.065,2.422c.284.738.971.738,2.011.738,2.093,0,4.982-.229,6.863-1.322a4.675,4.675,0,0,0,2.1-3.268c.1-.521.184-1.06.262-1.582s.157-1.055.259-1.567l.89-4.493c.327-1.664.426-2.166,1.109-2.555.074-.038.147-.073.218-.106.322-.151.656-.308.734-.69v-.01a.461.461,0,0,0-.251-.51.107.107,0,0,1-.049-.055c.009-.038.091-.058.169-.058h12.136c1.063,0,2.122.027,3.147.053,1.008.025,2.051.051,3.079.051,1.186,0,1.368-.663,1.665-2.163.194-.977.3-1.593.013-1.941a1.053,1.053,0,0,0-.878-.293" transform="translate(-20.258 -26.033)" fill="#cd362e"/>
    <path id="パス_12251" data-name="パス 12251" d="M74.944,140.16c-.443.276-1.11.693-1.213,1.208-.1.5.375,1.14.583,1.393a2.7,2.7,0,0,0,1.653,1.1h0a4.5,4.5,0,0,0,1.871-.8A56.917,56.917,0,0,0,89.12,134c.649-.661.773-.672,1.294-.717l.034,0h.014c.263-.044.884-.2.986-.715s-.3-.746-.573-.895l-.5-.277a13.18,13.18,0,0,0-2.714-1.36.17.17,0,0,0-.063-.012c-.338,0-.721.3-1.135.9-3.257,4.174-9.578,8.1-11.442,9.2Z" transform="translate(-19.344 -34.116)" fill="#cd362e"/>
    <path id="パス_12252" data-name="パス 12252" d="M120.746,130.084a5.015,5.015,0,0,0-2.9,2.42c-.109.551.325.912.642,1.176l.055.045a28.181,28.181,0,0,1,7.742,8.058l.066.1c.261.4.655,1.013,1.226,1.013a4.869,4.869,0,0,0,3.183-2.524c.1-.5-.51-1.553-1.809-3.136-2.338-2.848-6.8-7.153-8.2-7.153" transform="translate(-30.917 -34.134)" fill="#cd362e"/>
    <path id="パス_12253" data-name="パス 12253" d="M108.475,140.446a1.9,1.9,0,0,0-1.129.584l-.094.079c-8.435,7.157-17.84,10.49-29.6,10.49H77.52c-1.008,0-1.874,0-2.119,1.233a3.28,3.28,0,0,0,.274,2.689,1.566,1.566,0,0,0,1.283.527c2.526-.116,5.1-.36,7.647-.724a51.513,51.513,0,0,0,24.808-10.669l.154-.107a1.768,1.768,0,0,1,1.1-.48h.206c.548,0,1.17-.188,1.275-.717a.761.761,0,0,0-.238-.6,10.449,10.449,0,0,0-3.437-2.3" transform="translate(-19.749 -36.853)" fill="#cd362e"/>
    <path id="パス_12254" data-name="パス 12254" d="M190.535,117.522a5.007,5.007,0,0,0-1.438.531l-.083.039c-5.726,2.745-6.737,3.041-6.906,3.041a.309.309,0,0,1-.241-.084c-.145-.156-.11-.557-.093-.756a5.235,5.235,0,0,0-1.113-4.027,5.057,5.057,0,0,0-3.848-1.278h0a17.881,17.881,0,0,0-6.942,1.829,2.107,2.107,0,0,1-.8.238.209.209,0,0,1-.151-.055.175.175,0,0,1-.044-.116,15.728,15.728,0,0,1,1.956-2.466c.222-.253.434-.519.621-.778l.032-.038c1.035-1.235,1.221-1.457,2.3-1.6,3.079-.33,6.415-.855,10.2-1.6l.325-.063c1.057-.2,2.372-.456,2.544-1.32.005-.024.429-2.521-.279-3.384a.777.777,0,0,0-.626-.294h0a5.66,5.66,0,0,0-1.337.317,50.218,50.218,0,0,1-7.128,1.592.4.4,0,0,1-.281-.071.243.243,0,0,1-.027-.133,6.162,6.162,0,0,1,.811-1.3l.173-.217c.876-1.1,1.17-1.469,2.016-1.791.267-.1.765-.285.859-.757l0-.01a.623.623,0,0,0-.193-.484,12.392,12.392,0,0,0-4.125-2.568c-.583,0-.78.429-1.009.925l-.074.162a36.534,36.534,0,0,1-3.883,6.369c-.707.909-1.618.909-5.006.909-.845,0-1.727-.032-2.506-.061-.594-.021-1.119-.041-1.5-.041-1.162,0-1.432.476-1.757,2.111-.286,1.444-.3,1.978-.046,2.283a1.039,1.039,0,0,0,.85.26c1.157,0,2.2-.072,3.032-.13.591-.041,1.1-.077,1.5-.077.668,0,.841.123.884.176a.123.123,0,0,1,.022.111,1.866,1.866,0,0,1-.509.856c-1.359,1.635-8.3,9.925-11.355,12.619a2.334,2.334,0,0,0-.827,1.044,1.4,1.4,0,0,0,.432,1.1,4.725,4.725,0,0,0,2.624,1.65h0a1.38,1.38,0,0,0,.946-.583,55.928,55.928,0,0,1,5.3-5.71c2.453-2.211,8.215-4.91,11.445-4.91a2.105,2.105,0,0,1,1.571.53,2.284,2.284,0,0,1,.5,1.716,9.3,9.3,0,0,1-.128,1.665c-.1.5-.516.785-1.106,1.053-.918.384-1.859.88-2.77,1.359-.327.172-.651.343-.969.507-4.173,2.149-8.32,4.621-9.211,9.112a6.073,6.073,0,0,0,3.824,7.227,17.483,17.483,0,0,0,7.628,1.255,70.626,70.626,0,0,0,10.038-.676c.988-.235,1.233-.708,1.509-2.105.207-1.046.394-2.2-.023-2.711a.684.684,0,0,0-.557-.246h0a7.328,7.328,0,0,0-1.042.16,39.654,39.654,0,0,1-9.694,1.234h-.008c-3.352,0-5.643-.63-6.621-1.822a2.706,2.706,0,0,1-.486-2.347c.524-2.639,3.8-4.33,5.979-5.455a6.916,6.916,0,0,1,1.875-.8.394.394,0,0,1,.318.105.788.788,0,0,1,.04.6c-.138.693-.3,1.4-.465,2.081s-.329,1.4-.468,2.1a1.222,1.222,0,0,0,.158,1.053c.35.426,1.075.458,2.142.458,1.792,0,2.115-.263,2.461-2.007.19-.96.37-1.933.55-2.905s.356-1.927.545-2.879c.2-1.006.513-1.274,1.482-1.671.854-.32,1.709-.65,2.569-.98,1.2-.462,2.444-.94,3.688-1.4a5.089,5.089,0,0,1,.612-.185,4.015,4.015,0,0,0,.412-.118c1.221-.337,2.033-.615,2.184-1.381a6.433,6.433,0,0,0-.677-3.687.717.717,0,0,0-.6-.3" transform="translate(-40.545 -26.216)" fill="#cd362e"/>
    <path id="パス_12255" data-name="パス 12255" d="M232.992,130.073a1.378,1.378,0,0,1,1.552-1.3h.671c.84,0,1.8.045,2.437.074.35.016.618.029.744.029,1.184,0,1.334-.756,1.582-2.008.184-.924.282-1.508,0-1.846a1.061,1.061,0,0,0-.838-.284c-.341,0-.754.019-1.221.041-.6.029-1.278.061-2,.061l-.7,0a1.025,1.025,0,0,1-.336,0,.8.8,0,0,1-.575-.377,1,1,0,0,1-.04-.85l.727-3.667a1.152,1.152,0,0,1,1.252-1.089h.569a2.368,2.368,0,0,0,2.718-2.267c.087-.44.162-.88.235-1.32s.148-.876.235-1.314l1.5-7.539c.086-.436.188-.884.29-1.333s.207-.909.294-1.352a2.062,2.062,0,0,0-.2-1.755,2,2,0,0,0-1.637-.53c-.389,0-.769.013-1.147.026s-.749.025-1.135.025h-5.009c-.385,0-.767-.013-1.15-.025s-.774-.026-1.163-.026c-1.637,0-2.337.607-2.676,2.317-.088.441-.159.869-.231,1.3s-.143.848-.229,1.285l-1.5,7.542c-.087.437-.189.886-.291,1.335s-.207.909-.294,1.351a1.615,1.615,0,0,0,1.888,2.287c.358,0,.729-.013,1.109-.026s.782-.027,1.174-.027h.465a1.11,1.11,0,0,1,.886.273,1.15,1.15,0,0,1,.094.953l-3.384,17.084a1.25,1.25,0,0,1-1.064,1.107,4.386,4.386,0,0,1-1.125.248.6.6,0,0,1-.49-.176.943.943,0,0,1-.085-.741l2.3-11.618c.308-1.554.442-1.978.966-2.261.093-.066.184-.122.268-.173.256-.157.5-.305.558-.611a.58.58,0,0,0-.078-.462,1.131,1.131,0,0,0-.8-.326c-.22-.018-.608-.064-1.039-.114-.784-.092-1.672-.2-2.013-.2a.936.936,0,0,0-1.026.768l-.086.44a19.221,19.221,0,0,1-.466,3.382l-2.424,12.219,0,.018a1.169,1.169,0,0,1-1.132,1.094c-.136.026-.271.048-.4.069-.678.108-1.319.212-1.446.85a.175.175,0,0,0,0,.048,20.778,20.778,0,0,0,.455,3.237l.06.235c.131.523.234.935.74.935a1.059,1.059,0,0,0,.848-.638c.336-.548.357-.581,1.617-.915,4.895-1.131,9.832-2.523,14.678-4.136.954-.333,1.386-.533,1.635-1.79a3.121,3.121,0,0,0-.156-2.215.759.759,0,0,0-.606-.277,6.063,6.063,0,0,0-1,.3c-.491.159-1.109.359-1.705.538-.954.333-1.667.569-1.871.617a1.01,1.01,0,0,1-.37.044.547.547,0,0,1-.444-.166.857.857,0,0,1-.089-.7Zm-1.685-15.351a1.488,1.488,0,0,1-.162,0,.892.892,0,0,1-.683-.362,1,1,0,0,1-.122-.852l0-.012,1.334-6.725a1.168,1.168,0,0,1,.032-.164,1.548,1.548,0,0,1,1.431-1.123l.086,0h3.11a1.2,1.2,0,0,1,.163,0,.892.892,0,0,1,.683.362,1,1,0,0,1,.119.864l-1.333,6.724a1.2,1.2,0,0,1-.033.164,1.535,1.535,0,0,1-1.516,1.121Z" transform="translate(-57.222 -26.621)" fill="#cd362e"/>
    <path id="パス_12256" data-name="パス 12256" d="M260.947,109.772a2.433,2.433,0,0,0-.509-1.916,2.371,2.371,0,0,0-1.753-.822c-.55,0-1.09.013-1.623.026-.517.013-1.028.025-1.536.025h-1.188c-.71,0-1.4-.033-2.011-.063-.445-.021-.831-.041-1.118-.041-1.08,0-1.243.821-1.469,1.956-.167.843-.256,1.421.02,1.757a.888.888,0,0,0,.732.271c.256,0,.62-.017,1.05-.038.606-.03,1.362-.066,2.12-.066H255a.556.556,0,0,1,.409.128.176.176,0,0,1,.033.147,10.651,10.651,0,0,1-1.645,2.419,34.022,34.022,0,0,1-6.39,6.06l-.2.143c-.473.333-1.12.791-1.213,1.261a1.476,1.476,0,0,0,.416,1.193,3.107,3.107,0,0,0,1.875,1.145c2.214,0,12.2-11.287,12.655-13.584" transform="translate(-64.546 -28.072)" fill="#cd362e"/>
    <path id="パス_12257" data-name="パス 12257" d="M278.055,117.766c-.063-.073-.119-.136-.17-.2a29.423,29.423,0,0,1-4.168-5.646,1.043,1.043,0,0,1-.134-.645,1.391,1.391,0,0,1,.8-.962c1.2-.736,2.9-1.847,4.283-2.754a.862.862,0,0,1,.545-.213,1.341,1.341,0,0,1,.146.021,1.212,1.212,0,0,0,.17.027.7.7,0,0,0,.322.052.779.779,0,0,0,.8-.56c.094-.476-.495-1.3-.845-1.739-.8-1.2-1.208-1.784-1.7-1.784h0a1.577,1.577,0,0,0-.9.505c-1.379,1.159-2.829,2.267-4.317,3.3a1.185,1.185,0,0,1-.71.27.657.657,0,0,1-.634-.544,35.14,35.14,0,0,1-1.176-4.659,1.573,1.573,0,0,1,.041-.437,1.081,1.081,0,0,1,.522-.578c.094-.059.184-.11.266-.156.3-.169.557-.314.621-.635a.558.558,0,0,0-.086-.446,1.39,1.39,0,0,0-.947-.381l-.084-.011c-.789-.109-2.643-.313-3.372-.313a.946.946,0,0,0-1.089.82l-.085.434a34.126,34.126,0,0,1-.682,4.472l-2.107,10.624c-.443,2.235-.576,2.91-2.853,2.91-.3,0-.622-.026-.93-.052s-.642-.052-.96-.052c-.823,0-.963.707-1.047,1.13a3.184,3.184,0,0,0,.205,2.579,1.782,1.782,0,0,0,1.484.482h.1c2.919,0,6.916,0,7.744-4.175.108-.547.189-1.085.267-1.606s.158-1.057.265-1.6l.977-4.942a.19.19,0,0,1,.132-.161.1.1,0,0,1,.08,0l.025.057a31.9,31.9,0,0,0,4.292,9.048c.055.067.123.156.2.26.777,1.007,1.657,2.082,2.279,2.082.794,0,3.041-1.554,3.2-2.369.094-.473-.424-1.067-.767-1.46" transform="translate(-67.547 -26.051)" fill="#cd362e"/>
    <path id="パス_12258" data-name="パス 12258" d="M269.643,133.235c-.518,0-1.039.013-1.559.027s-1.036.026-1.55.026H254.762c-.515,0-1.027-.013-1.539-.026s-1.03-.027-1.548-.027c-1.84,0-2.4.946-2.686,2.368-.114.571-.214,1.142-.314,1.712s-.2,1.131-.311,1.7l-2.1,10.586c-.117.59-.245,1.168-.372,1.746s-.257,1.168-.375,1.764a1.317,1.317,0,0,0,.117,1.14c.291.355.881.372,1.821.372,1.429,0,2.217,0,2.492-1.388l.051-.257c.122-.615.4-.833,1.047-.833H262.92c.321,0,.521.054.612.165a.738.738,0,0,1,.045.6c-.124.624-.153,1.069.084,1.357.283.345.833.361,1.865.361,1.442,0,2.165,0,2.441-1.388.119-.6.224-1.193.33-1.789s.209-1.183.326-1.774l2.1-10.585c.113-.566.237-1.131.363-1.7s.252-1.14.364-1.71a2.224,2.224,0,0,0-.2-1.9,1.952,1.952,0,0,0-1.608-.537m-4.477,12.181-.329,1.659a.954.954,0,0,1-.022.1,1.352,1.352,0,0,1-1.333.983H251.9a1.205,1.205,0,0,1-.127,0,.745.745,0,0,1-.571-.3.834.834,0,0,1-.1-.71l0-.011.322-1.663a1.07,1.07,0,0,1,.026-.131,1.307,1.307,0,0,1,1.209-.952l.068,0h11.587a.8.8,0,0,1,.1,0,.786.786,0,0,1,.616.293.852.852,0,0,1,.132.729m1.434-7.229-.308,1.553q-.009.052-.022.1a1.347,1.347,0,0,1-1.32.983h-11.6a1.1,1.1,0,0,1-.131,0,.747.747,0,0,1-.571-.3.841.841,0,0,1-.1-.72l.31-1.561a.987.987,0,0,1,.025-.128,1.289,1.289,0,0,1,1.277-.951h11.587c.035,0,.069,0,.1,0a.791.791,0,0,1,.618.3.853.853,0,0,1,.132.727" transform="translate(-64.407 -34.961)" fill="#cd362e"/>
    <path id="パス_12259" data-name="パス 12259" d="M338.366,130l-.113-.054c-.539-.243-1.952-1.061-3.088-1.719-.537-.311-1.014-.587-1.306-.749-.66-.4-1.017-.755-.889-1.4a3.116,3.116,0,0,1,.378-.895c.808-1.747,1.578-3.521,2.287-5.275.462-1.135.462-1.135,1.078-1.648l.108-.09a1.709,1.709,0,0,0,.493-.722c.128-.652-.53-.851-.808-.935a39.774,39.774,0,0,0-4.074-.835c-.823,0-.976.773-1.078,1.284l-.081.409a29.448,29.448,0,0,1-2.054,5.955c-.264.589-.538,1.078-1.185,1.078a2.183,2.183,0,0,1-.82-.241,29.126,29.126,0,0,0-5.609-1.872l-.109-.021c-.509-.1-1.142-.22-1.338-.512a.419.419,0,0,1-.053-.33c.164-.557,6.391-9.594,8.971-11.706a1.539,1.539,0,0,0,.691-.846.189.189,0,0,0,.018-.051c.1-.53-.378-1.256-.8-1.772-.839-1.022-2.225-2.166-2.844-2.166h0a3.523,3.523,0,0,0-1.573.589c-2.6,1.368-9.955,3.273-13.035,3.7l-.086.02c-.446.1-1.058.247-1.177.848a6.066,6.066,0,0,0,1.039,3.5,1.259,1.259,0,0,0,.981.537h0a4.837,4.837,0,0,0,1.406-.371c.932-.333,8.021-2.82,8.349-2.88a.25.25,0,0,1,.19.089.3.3,0,0,1,.063.175,3.23,3.23,0,0,1-.584.94c-1.326,1.8-2.6,3.7-3.826,5.532-.684,1.02-1.367,2.039-2.062,3.046a1.867,1.867,0,0,1-1.821.952,20.287,20.287,0,0,0-4.554.886c-4.409,1.411-9.359,5.3-10.291,10a5.5,5.5,0,0,0,.935,4.589,4.642,4.642,0,0,0,3.737,1.62c4.073,0,6.724-3.815,8.853-6.881l.335-.481c.263-.395.518-.749.753-1.078s.436-.607.62-.889c1.772-2.536,2.248-3.218,3.132-3.218,1.361,0,4.811,1.221,6.267,1.843l.313.14c1.255.558,1.683.786,1.548,1.463-.19.96-5.729,8.065-11.836,10.867-.66.3-1.032.64-1.1,1.01a1.241,1.241,0,0,0,.379.977,5.608,5.608,0,0,0,2.759,1.775c1.1,0,5.395-3.521,5.846-3.919a48.907,48.907,0,0,0,7.421-8.105,1.329,1.329,0,0,1,.974-.679c.55,0,2.137,1.207,4.14,3.147l.119.122a1.652,1.652,0,0,0,1.055.654c1.078,0,3.754-3.33,3.923-4.176.141-.71-.524-1.025-.965-1.234m-29-.205-.25.327c-1.152,1.512-3.082,4.042-4.718,4.042a1.028,1.028,0,0,1-.842-.339,1.629,1.629,0,0,1-.2-1.351l0-.016c.721-3.569,5.982-6.29,7.941-6.292a.256.256,0,0,1,.2.08.259.259,0,0,1,.052.217,21.261,21.261,0,0,1-2.19,3.332" transform="translate(-78.464 -27.521)" fill="#cd362e"/>
    <path id="パス_12260" data-name="パス 12260" d="M415.188,108.334a39.036,39.036,0,0,1,2.691,4.065l.049.083c.15.255.338.572.72.572.772,0,2.692-1.356,2.852-2.161.105-.535-1.868-3.3-2.7-4.308-.883-1.076-1.1-1.076-1.209-1.076-.612,0-2.586,1.34-2.711,1.981a1.066,1.066,0,0,0,.307.844" transform="translate(-108.864 -27.686)" fill="#cd362e"/>
    <path id="パス_12261" data-name="パス 12261" d="M403.539,128.854c.338,0,.679-.013,1.019-.026s.672-.026,1.01-.026a20.235,20.235,0,0,1,7.521,1.165,3.2,3.2,0,0,0,1.007.331,1.372,1.372,0,0,0,1.234-.817,14.39,14.39,0,0,0,1.167-2.719.969.969,0,0,0-.051-.748.824.824,0,0,0-.482-.4c-2.23-1.037-7-1.413-9.664-1.413h-.412c-2.3,0-2.857.1-3.481,3.248-.1.488-.115.84.091,1.092a1.27,1.27,0,0,0,1.041.316" transform="translate(-105.573 -32.59)" fill="#cd362e"/>
    <path id="パス_12262" data-name="パス 12262" d="M425.693,108.268l.045.074a.914.914,0,0,0,.775.581,4.588,4.588,0,0,0,2.8-2.162l0-.016c.072-.57-1.7-3.086-2.644-4.235s-1.157-1.134-1.267-1.134c-.563,0-2.579,1.3-2.718,2.009a1.062,1.062,0,0,0,.316.819,32.228,32.228,0,0,1,2.689,4.063" transform="translate(-110.91 -26.601)" fill="#cd362e"/>
    <path id="パス_12263" data-name="パス 12263" d="M383.19,117.069c-3.265,6-9.918,16.665-13.922,21.083l-.136.147a4.076,4.076,0,0,0-1.032,1.439,1.163,1.163,0,0,0,.332.95,5.154,5.154,0,0,0,2.848,1.594c.808,0,1.354-.763,2.11-1.818l.195-.271a206.581,206.581,0,0,0,14.3-23.1c.8-1.544.912-1.564,2.7-1.918a76.152,76.152,0,0,0,8.913-2.075c.765-.294.957-1,1.165-2.046l.018-.1c.206-1.017.365-2.121-.017-2.589a.6.6,0,0,0-.493-.221h-.005a5.255,5.255,0,0,0-1.522.424,34.619,34.619,0,0,1-4.826,1.493,16.581,16.581,0,0,1-1.967.459.351.351,0,0,1-.279-.11.346.346,0,0,1-.072-.288,1.978,1.978,0,0,1,.2-.53l1.379-2.929c1.193-2.523,1.376-2.91,2.444-3.514l.075-.061a1.107,1.107,0,0,0,.458-.594l0-.018a.51.51,0,0,0-.132-.429c-.738-.9-4.821-1.857-4.854-1.857-.63,0-.794.626-.925,1.13-.022.081-.043.162-.068.251-.374,1.6-3.223,8.853-4.1,9.661a1.69,1.69,0,0,1-1.227.422c-1.17.1-2.306.155-3.475.155-1.531,0-2.973-.128-3.833-.206-.359-.032-.6-.053-.71-.053-.816,0-1.029.519-1.13,1.025a10.08,10.08,0,0,0-.151,3.156.218.218,0,0,0,.011.047c.254.632.921.632,2.135.632,1.242,0,2.847-.106,4.019-.184.617-.041,1.1-.073,1.311-.074h.051a.4.4,0,0,1,.316.141.421.421,0,0,1,.074.349,2.079,2.079,0,0,1-.18.428" transform="translate(-96.585 -26.29)" fill="#cd362e"/>
    <path id="パス_12264" data-name="パス 12264" d="M409.929,152.022c.222-1.121.431-2.18.04-2.657a.693.693,0,0,0-.56-.247h0a1.623,1.623,0,0,0-.481.06,23.808,23.808,0,0,1-7.269.974c-3.118,0-6.927-.32-8.725-2.812-.322-.533-.637-.8-.937-.8-.81,0-3.22,2.454-3.377,3.247-.238,1.2,1.631,2.643,2.008,2.921,1.961,1.428,5.488,2.153,10.481,2.153.831,0,6.6-.118,7.728-.631.718-.277.89-1.16,1.055-2.013Z" transform="translate(-101.968 -38.451)" fill="#cd362e"/>
    <path id="パス_12265" data-name="パス 12265" d="M478.892,128.112a3.026,3.026,0,0,0-.854-2.344,3.424,3.424,0,0,0-2.09-1.389c-.783,0-1.1.92-1.346,1.658l-.026.073a19.5,19.5,0,0,1-4.631,7.619c-3.18,3.2-7.6,5.265-11.25,5.265a4.272,4.272,0,0,1-3.487-1.354c-1.744-2.123-.891-6.423-.327-9.269a138.7,138.7,0,0,1,4.637-17.628,6,6,0,0,1,1.564-2.961l.086-.059a1.417,1.417,0,0,0,.711-.832c.091-.457-.223-.786-.93-.981l-.018-.007a28,28,0,0,0-4.387-1.094c-.875,0-1.027.769-1.151,1.39-.181,1-.419,2.022-.7,3.03-1.718,6.157-3.5,12.713-4.794,19.223-.8,4.006-1.393,8.5.2,11.434,1.388,2.517,4.381,4.019,8.006,4.019,6.269,0,13.171-3.881,17.584-9.885.969-1.31,2.923-4.493,3.2-5.909" transform="translate(-117.842 -27.502)" fill="#cd362e"/>
    <path id="パス_12266" data-name="パス 12266" d="M508.233,142.283c.808,0,1.353-.76,2.107-1.814l.2-.277a206.732,206.732,0,0,0,14.3-23.1c.8-1.543.91-1.564,2.694-1.917a76.785,76.785,0,0,0,8.913-2.075c.763-.294.957-1,1.165-2.047l.02-.1c.205-1.016.363-2.117-.018-2.583a.6.6,0,0,0-.493-.22h-.005a5.251,5.251,0,0,0-1.522.424,34.653,34.653,0,0,1-4.826,1.492,16.49,16.49,0,0,1-1.967.458.326.326,0,0,1-.352-.4,2.006,2.006,0,0,1,.2-.53l1.383-2.937c1.191-2.517,1.373-2.9,2.44-3.507l.08-.064a1.088,1.088,0,0,0,.457-.609l0-.013a.514.514,0,0,0-.135-.417c-.738-.9-4.82-1.857-4.853-1.857-.629,0-.794.626-.926,1.129-.021.082-.043.164-.069.252-.372,1.6-3.221,8.852-4.1,9.661a1.7,1.7,0,0,1-1.228.422c-1.165.1-2.3.154-3.475.154-1.531,0-2.973-.128-3.833-.205-.36-.032-.6-.053-.71-.053-.817,0-1.03.519-1.133,1.039a20.045,20.045,0,0,0-.15,3.14c.07.682.763.682,2.146.682,1.243,0,2.849-.107,4.022-.184.616-.041,1.1-.074,1.309-.074h.048a.4.4,0,0,1,.318.142.416.416,0,0,1,.076.347,2.023,2.023,0,0,1-.182.429c-3.264,6-9.918,16.667-13.921,21.083l-.133.145a4.088,4.088,0,0,0-1.036,1.442,1.165,1.165,0,0,0,.333.951,5.148,5.148,0,0,0,2.846,1.593" transform="translate(-132.522 -26.29)" fill="#cd362e"/>
    <path id="パス_12267" data-name="パス 12267" d="M546.364,149.117h0a1.609,1.609,0,0,0-.482.058,23.69,23.69,0,0,1-7.269.974c-3.119,0-6.929-.319-8.726-2.815l-.008-.01c-.322-.523-.634-.788-.929-.788-.811,0-3.22,2.453-3.377,3.246-.238,1.2,1.629,2.643,2.007,2.922,1.961,1.429,5.489,2.152,10.482,2.152.831,0,6.6-.119,7.728-.631.718-.277.89-1.159,1.056-2.013l.038-.193c.222-1.121.431-2.18.041-2.655a.69.69,0,0,0-.56-.247" transform="translate(-137.905 -38.451)" fill="#cd362e"/>
    <path id="パス_12268" data-name="パス 12268" d="M552.922,125.616c-2.228-1.036-7-1.413-9.663-1.413h-.412c-2.288,0-2.858.105-3.482,3.248-.1.488-.115.84.091,1.093a1.274,1.274,0,0,0,1.041.316c.338,0,.679-.013,1.019-.027s.672-.026,1.009-.026a21.427,21.427,0,0,1,7.509,1.159,2.246,2.246,0,0,0,1.01.339h.063a1.31,1.31,0,0,0,1.18-.815,11.733,11.733,0,0,0,1.169-2.724.965.965,0,0,0-.053-.749.814.814,0,0,0-.481-.4" transform="translate(-141.511 -32.591)" fill="#cd362e"/>
    <path id="パス_12269" data-name="パス 12269" d="M42.184,220.275c-.96,0-1.994.036-3.088.075-1.126.038-2.29.08-3.4.08H27.643a.736.736,0,0,1-.6-.21,1.127,1.127,0,0,1-.093-.912c.077-.387.2-.89.329-1.423.148-.606.3-1.23.409-1.778.15-.757.293-1.767.409-2.578.072-.505.134-.942.173-1.14a1.54,1.54,0,0,1,1.365-1.2c2.183-.475,4.389-1.067,6.566-1.761a10.864,10.864,0,0,1,2.055-.507,1.16,1.16,0,0,1,.2.024,1.694,1.694,0,0,0,.229.028,2.532,2.532,0,0,0,.561.1.913.913,0,0,0,.919-.664c.1-.488-.349-1.315-1.446-2.681l-.443-.559c-.306-.4-.769-1.008-1.277-1.008h0a1.878,1.878,0,0,0-1.036.437c-2.163,1.23-7.482,2.415-10.282,2.922A82.9,82.9,0,0,1,12,208.709c-.325,0-.713-.017-1.044-.032-.249-.01-.465-.02-.6-.02a1.27,1.27,0,0,0-1.422.947,6.577,6.577,0,0,0,.332,2.6c.263.873.527,1.163,1.572,1.163,3.518,0,9.281-.652,11.175-.867.336-.038.543-.061.578-.063.35,0,.473.1.535.176.332.406.094,1.762-.307,3.786l-.039.2c-.407,2.059-.758,3.838-2.211,3.838H8.433c-1.083,0-2.231-.041-3.341-.08-1.079-.038-2.1-.074-3.032-.074-1.391,0-1.59,1-1.891,2.524-.185.932-.282,1.575.052,1.98a1.215,1.215,0,0,0,1,.357c.96,0,1.966-.024,3.033-.05,1.1-.027,2.231-.054,3.339-.054h11.52a.562.562,0,0,1,.416.169.523.523,0,0,1,.117.421,5.211,5.211,0,0,1-.307.8,30.516,30.516,0,0,1-6.1,8.261,31.643,31.643,0,0,1-9.465,6.057l-.1.041c-.519.208-1.228.494-1.343,1.075-.105.532.52,1.364.794,1.7.6.729,1.452,1.466,2,1.466,1.091,0,6.184-3.228,7.058-3.854A34.759,34.759,0,0,0,24.2,226.891c.544-1.123.985-1.859,2.134-1.859h8.52c1.05,0,2.129.026,3.174.052,1.065.025,2.167.052,3.26.052,1.342,0,1.62-.9,1.891-2.264.226-1.14.34-1.862.011-2.263a1.217,1.217,0,0,0-1.011-.333" transform="translate(0 -53.573)" fill="#cd362e"/>
    <path id="パス_12270" data-name="パス 12270" d="M104.907,220.908c-.091,0-4.3.873-4.34.881L91.1,223.652a1.052,1.052,0,0,1-.88-.21.939.939,0,0,1-.312-.752l-.035-2.427a37.042,37.042,0,0,1,.083-3.786,1.065,1.065,0,0,1,.218-.471,1.073,1.073,0,0,0,.3-.558.714.714,0,0,0-.129-.621,1.689,1.689,0,0,0-1.287-.375h0a14.464,14.464,0,0,0-2.494.158c-.564.1-1.154.269-1.255.78a2.075,2.075,0,0,0,.053.818,35.579,35.579,0,0,1,.173,3.847c0,.305.005.617.01.937l.035,2.433c0,.026,0,.052,0,.079a1.6,1.6,0,0,1-1.319,1.435h-.007l-4.36.878c-.694.151-1.311.232-1.854.3-.381.05-.74.1-1.068.16-2.58.4-3.332.557-3.52,1.5a9.311,9.311,0,0,0,.037,2.48.814.814,0,0,0,.906.669c.059,0,.43-.072,2.928-.575,1.193-.24,2.318-.466,2.59-.514l4.372-.873c.03,0,.123-.014.216-.029.066-.011.132-.023.164-.024a.88.88,0,0,1,.976.953l.069,10.583c-.008,1.331-.017,2.422-.046,3.356l0,.377c-.021,1.747-.032,2.708.416,3.163a.952.952,0,0,0,.719.26h0a7.867,7.867,0,0,0,2.1-.474c.629-.214,1.052-.406,1.193-1.12a42.227,42.227,0,0,0,.009-4.96c-.018-.6-.032-1.113-.036-1.429l-.083-10.566a.569.569,0,0,1,.01-.237,1.672,1.672,0,0,1,1.319-1.252l7.74-1.5a3.675,3.675,0,0,1,.729-.1.251.251,0,0,1,.205.081.26.26,0,0,1,.051.215c-.129.51-4.266,4.819-5.164,5.679a2.529,2.529,0,0,0-.949,1.19.9.9,0,0,0,.238.761,4.134,4.134,0,0,0,2.445,1.163c.828,0,1.514-.8,2.065-1.433l.066-.076c.38-.44.8-.935,1.252-1.463a75.415,75.415,0,0,1,6.693-7.234,1.8,1.8,0,0,0,.724-1.044c.114-.572-.464-1.354-.718-1.662-.508-.62-1.252-1.244-1.77-1.244" transform="translate(-19.254 -56.271)" fill="#cd362e"/>
    <path id="パス_12271" data-name="パス 12271" d="M177.238,219.664a2.738,2.738,0,0,0-1.395.763,95.61,95.61,0,0,1-23.03,13.712,35.608,35.608,0,0,1-5.23,2,.431.431,0,0,1-.374-.131c-.226-.275-.091-1.075.066-1.87L151,215.377c.287-1.443.765-3.855,1.146-5.258a1.747,1.747,0,0,1,.562-1.011,1.112,1.112,0,0,0,.559-.736.54.54,0,0,0-.086-.428c-.313-.45-1.378-.621-3.143-.906l-.743-.12a7.109,7.109,0,0,0-.974-.159.805.805,0,0,0-.146,0,.831.831,0,0,0-.73.7,1.054,1.054,0,0,0-.038.446,47.284,47.284,0,0,1-.845,5.3l-3.932,19.826c-.343,1.73-.8,3.644-1.07,4.787-.119.5-.2.855-.231,1-.143.72-.191,1.189.342,1.623a10.07,10.07,0,0,0,3.38,1.694h0a3.655,3.655,0,0,0,1.39-.53c.661-.3,1.345-.611,2.077-.874A118.222,118.222,0,0,0,173.7,227.436c1.741-1.2,3.1-2.191,4.4-3.2a2,2,0,0,0,.768-.994,5.373,5.373,0,0,0-1.006-3.195.859.859,0,0,0-.625-.383" transform="translate(-37.059 -54.252)" fill="#cd362e"/>
    <path id="パス_12272" data-name="パス 12272" d="M227.852,210.391l-.068-.057c-4.823-4.065-5.442-4.065-5.646-4.065-1.133,0-3.245,2.586-3.377,3.246-.12.61.395.942.665,1.116a43.207,43.207,0,0,1,5.342,4.48c.083.073.176.157.275.247.748.676,1.351,1.193,1.739,1.193,1.045,0,3.332-2.242,3.532-3.247.034-.173.125-.631-2.459-2.911l0,0" transform="translate(-57.398 -54.125)" fill="#cd362e"/>
    <path id="パス_12273" data-name="パス 12273" d="M248.2,218.439c-8.434,8.448-23.493,18.824-35.949,22.31l-.163.038c-.688.16-1.468.341-1.585.932a.178.178,0,0,0,0,.066,11.447,11.447,0,0,0,.777,2.666l.112.311c.431,1.2.69,1.927,1.306,1.927a1.081,1.081,0,0,0,.779-.439c.623-.893.706-.974,2.208-1.587a119.057,119.057,0,0,0,31.836-19.446c.032-.027,3.274-2.761,3.423-3.513a6.432,6.432,0,0,0-1-3.5c-.479-.583-1-.5-1.738.235" transform="translate(-55.236 -57.156)" fill="#cd362e"/>
    <path id="パス_12274" data-name="パス 12274" d="M335.351,200.1c-.139-.136-.26-.252-.351-.345l-.071-.068c-1.151-1.094-1.841-1.687-2.2-1.687a4.9,4.9,0,0,0-2.552,2.214,1.01,1.01,0,0,0,.43.9,33.755,33.755,0,0,1,3.4,3.541,1.042,1.042,0,0,0,.733.482c.783,0,2.489-1.635,2.635-2.369.1-.482-.672-1.342-2.031-2.664" transform="translate(-86.636 -51.956)" fill="#cd362e"/>
    <path id="パス_12275" data-name="パス 12275" d="M298.983,209.455a52.828,52.828,0,0,1,6.087,5.213c.044.034.093.074.145.117a1.89,1.89,0,0,0,1.033.541c1.036,0,3.122-2.219,3.294-3.093a.9.9,0,0,0-.372-.952,32.107,32.107,0,0,0-2.464-2.169l-.268-.221c-2.992-2.48-4.472-3.538-4.947-3.538-.97,0-3.067,2.2-3.222,2.988-.116.581.381.9.713,1.115" transform="translate(-78.261 -53.884)" fill="#cd362e"/>
    <path id="パス_12276" data-name="パス 12276" d="M321.421,215.224c-.606,0-.923.551-1.2,1.036l-.113.195a50.119,50.119,0,0,1-11.49,14.613A45.486,45.486,0,0,1,294,239.4a64.872,64.872,0,0,1-6.577,2.057c-.732.144-1.12.377-1.188.714a.185.185,0,0,0,0,.053,12.277,12.277,0,0,0,.464,2.4c.021.083.046.184.074.3.291,1.2.631,2.369,1.307,2.369.509,0,.846-.482,1.054-.782a3.338,3.338,0,0,1,1.843-1.035c5.453-1.876,13.264-5.2,19.51-10.362A62.763,62.763,0,0,0,322.246,221.5a25.316,25.316,0,0,0,1.712-3.121.182.182,0,0,0,.016-.065c.1-.583-.546-1.441-.829-1.786-.533-.649-1.273-1.3-1.725-1.3" transform="translate(-75.107 -56.475)" fill="#cd362e"/>
    <path id="パス_12277" data-name="パス 12277" d="M327.929,205.7c-1.141-1.121-1.935-1.816-2.364-1.816a4.993,4.993,0,0,0-2.5,2.214.959.959,0,0,0,.316.759l.072.084a34.61,34.61,0,0,1,3.417,3.616c.04.036.079.077.119.121a.827.827,0,0,0,.591.339c.8,0,2.548-1.671,2.7-2.421.1-.53-1.268-1.889-2.1-2.651h0c-.063-.06-.149-.145-.252-.246" transform="translate(-84.769 -53.499)" fill="#cd362e"/>
    <path id="パス_12278" data-name="パス 12278" d="M286.574,223.811a.958.958,0,0,0,.526.992l.11.081a56.482,56.482,0,0,1,6.983,4.926,2.238,2.238,0,0,0,1.156.624c1.137,0,3.136-2.556,3.284-3.3.111-.561-.393-.947-.6-1.108-.879-.72-1.84-1.364-2.769-1.986-.351-.235-.7-.469-1.049-.708l-.318-.22c-1.871-1.3-3.677-2.5-4.21-2.5-1.069,0-2.967,2.476-3.109,3.195" transform="translate(-75.192 -57.89)" fill="#cd362e"/>
    <path id="パス_12279" data-name="パス 12279" d="M384.931,220.91c-.093,0-4.3.873-4.34.881l-9.47,1.86a1.051,1.051,0,0,1-.88-.21.939.939,0,0,1-.312-.752l-.035-2.427a37.064,37.064,0,0,1,.083-3.786,1.058,1.058,0,0,1,.218-.47,1.079,1.079,0,0,0,.3-.558.717.717,0,0,0-.13-.622,1.686,1.686,0,0,0-1.285-.374h0a14.412,14.412,0,0,0-2.5.158c-.564.1-1.154.269-1.255.78a2.061,2.061,0,0,0,.053.818,35.625,35.625,0,0,1,.173,3.838c0,.308,0,.622.009.945l.035,2.433c0,.027,0,.053,0,.079a1.6,1.6,0,0,1-1.319,1.435h-.008l-4.361.88c-.694.151-1.31.232-1.854.3-.381.05-.739.1-1.068.16-2.58.4-3.332.557-3.518,1.5a9.219,9.219,0,0,0,.036,2.48.813.813,0,0,0,.905.669c.059,0,.437-.073,2.978-.584,1.157-.232,2.271-.457,2.54-.5l4.371-.873c.031,0,.125-.014.218-.029.066-.011.131-.023.163-.024a.88.88,0,0,1,.976.953l.07,10.583c-.01,1.442-.017,2.455-.046,3.357l0,.372c-.022,1.749-.033,2.711.415,3.167a.951.951,0,0,0,.72.261h0a7.856,7.856,0,0,0,2.1-.474c.63-.214,1.053-.406,1.194-1.12a42.235,42.235,0,0,0,.009-4.951c-.018-.6-.033-1.12-.036-1.438L370,229.065a.545.545,0,0,1,.009-.238,1.672,1.672,0,0,1,1.32-1.252l7.741-1.5a3.587,3.587,0,0,1,.729-.1.31.31,0,0,1,.2.081.261.261,0,0,1,.051.215c-.128.505-4.265,4.817-5.163,5.679a2.521,2.521,0,0,0-.949,1.19.9.9,0,0,0,.237.761,4.136,4.136,0,0,0,2.445,1.163c.828,0,1.513-.794,2.064-1.432l.066-.077c.379-.439.8-.932,1.25-1.459a75.314,75.314,0,0,1,6.7-7.238,1.8,1.8,0,0,0,.724-1.044c.114-.573-.465-1.354-.719-1.663-.508-.618-1.252-1.243-1.769-1.243" transform="translate(-92.732 -56.271)" fill="#cd362e"/>
    <path id="パス_12280" data-name="パス 12280" d="M455.166,226.288c-.319,0-.977.022-1.811.051-1.3.044-3.078.1-4.415.1h-23.7c-1.376,0-3.148-.061-4.442-.105-.809-.028-1.461-.05-1.775-.05-1.4,0-1.646.507-2.077,2.679-.165.833-.322,1.619.055,2.077a1.184,1.184,0,0,0,.977.364c1.062,0,2.147-.038,3.2-.077s2.129-.077,3.183-.077h23.7c1.056,0,2.122.039,3.154.077s2.1.077,3.167.077c1.391,0,1.62-1.151,1.861-2.369.277-1.4.367-2.05.059-2.424a1.4,1.4,0,0,0-1.133-.326" transform="translate(-109.359 -59.378)" fill="#cd362e"/>
    <path id="パス_12281" data-name="パス 12281" d="M506.931,215.077A76.319,76.319,0,0,0,515.844,213c.765-.3.958-1,1.165-2.046l.02-.1c.205-1.016.363-2.117-.018-2.583a.6.6,0,0,0-.493-.219h-.005a5.2,5.2,0,0,0-1.522.425,34.824,34.824,0,0,1-4.826,1.491,16.417,16.417,0,0,1-1.966.457.358.358,0,0,1-.279-.108.35.35,0,0,1-.074-.288,2,2,0,0,1,.2-.529l1.384-2.939c1.19-2.516,1.373-2.9,2.439-3.5l.078-.063a1.09,1.09,0,0,0,.459-.61l0-.013a.515.515,0,0,0-.135-.417c-.738-.9-4.82-1.857-4.853-1.857-.63,0-.794.627-.926,1.131-.021.081-.043.162-.069.252-.373,1.6-3.222,8.851-4.1,9.66a1.683,1.683,0,0,1-1.227.422c-1.165.1-2.3.154-3.474.154-1.533,0-2.973-.128-3.834-.2-.36-.032-.6-.053-.711-.053-.817,0-1.03.519-1.132,1.039a20.1,20.1,0,0,0-.15,3.14c.07.682.763.682,2.146.682,1.244,0,2.849-.107,4.022-.184.615-.041,1.1-.073,1.309-.074h.049a.4.4,0,0,1,.317.14.418.418,0,0,1,.075.348,2.066,2.066,0,0,1-.181.429c-3.265,6-9.921,16.669-13.922,21.083l-.132.145a4.062,4.062,0,0,0-1.036,1.442,1.161,1.161,0,0,0,.333.95,5.15,5.15,0,0,0,2.846,1.594c.809,0,1.354-.762,2.11-1.817l.2-.274a206.765,206.765,0,0,0,14.3-23.1c.8-1.543.91-1.564,2.694-1.918" transform="translate(-127.116 -52.505)" fill="#cd362e"/>
    <path id="パス_12282" data-name="パス 12282" d="M532.321,225.522c-2.228-1.036-7-1.412-9.664-1.412h-.412c-2.295,0-2.858.105-3.482,3.248-.1.488-.115.84.091,1.092a1.27,1.27,0,0,0,1.041.316c.338,0,.679-.013,1.019-.026s.672-.026,1.009-.026a21.367,21.367,0,0,1,7.509,1.158,2.193,2.193,0,0,0,1.009.339h.064a1.31,1.31,0,0,0,1.179-.814,11.738,11.738,0,0,0,1.169-2.725.968.968,0,0,0-.052-.747.817.817,0,0,0-.481-.4" transform="translate(-136.105 -58.806)" fill="#cd362e"/>
    <path id="パス_12283" data-name="パス 12283" d="M525.764,249.024h0a1.566,1.566,0,0,0-.483.058,23.711,23.711,0,0,1-7.269.974c-3.119,0-6.93-.319-8.726-2.815l-.008-.01c-.32-.522-.633-.787-.929-.787-.811,0-3.22,2.453-3.377,3.246-.238,1.2,1.629,2.643,2.007,2.922,1.963,1.429,5.489,2.152,10.482,2.152.831,0,6.6-.119,7.729-.632.717-.276.889-1.157,1.054-2.01l.038-.192c.223-1.121.433-2.181.041-2.658a.691.691,0,0,0-.558-.247" transform="translate(-132.499 -64.667)" fill="#cd362e"/>
    <path id="パス_12284" data-name="パス 12284" d="M584.078,220.034c-3.8,0-6.9,1.274-10.68,3.341a1.386,1.386,0,0,1-.727.274.116.116,0,0,1-.09-.047.148.148,0,0,1-.014-.12,14.692,14.692,0,0,1,.752-1.738c.749-1.531,1.23-2.677,1.618-3.6l.055-.129c.968-2.331,1.116-2.689,2.666-2.883,3.622-.423,9.344-1.2,12.816-1.81l.117-.022c.768-.145,1.561-.3,1.732-1.154.055-.277.367-2.936-.263-3.7a.576.576,0,0,0-.492-.234,5.569,5.569,0,0,0-1.446.367c-2.24.668-9.114,2.316-11.161,2.317h-.052a.439.439,0,0,1-.348-.156.461.461,0,0,1-.083-.386,5.885,5.885,0,0,1,.319-.85c.272-.579.471-1.049.658-1.5a5.383,5.383,0,0,1,1.751-2.559c.3-.211.719-.5.8-.89,0-.01,0-.019,0-.029a.7.7,0,0,0-.187-.554c-.83-1.012-4.386-1.91-4.608-1.91-.765,0-.987.859-1.184,1.618l-.043.163c-1.275,4-2.252,6.595-2.677,7.11-.676.764-2.471.764-5.446.764-.818,0-1.648-.026-2.451-.051-.825-.025-1.677-.052-2.579-.052-.4,0-1.194-.007-1.461,1.345a14.093,14.093,0,0,0-.142,2.582c.089.654.323,1.09,1.18,1.09a5.289,5.289,0,0,0,.909-.053l7.319-.621a.774.774,0,0,1,.1-.01.381.381,0,0,1,.3.128.392.392,0,0,1,.085.308,27.686,27.686,0,0,1-1.24,2.88,67.743,67.743,0,0,1-4.74,8.852,3.918,3.918,0,0,0-.574,1.256,1.484,1.484,0,0,0,.392,1.228,4.069,4.069,0,0,0,2.622,1.368c.651,0,1.179-.567,1.6-1.022.072-.078.141-.152.212-.225,3.172-3.439,9.581-6.343,13.992-6.343a4.428,4.428,0,0,1,3.573,1.477,5.031,5.031,0,0,1,.8,4.24c-.69,3.479-3.141,6.108-6.9,7.4a29.25,29.25,0,0,1-9.017,1.488,25.177,25.177,0,0,1-2.756-.176c-.432-.045-.79-.077-.991-.08a.973.973,0,0,0-.145-.008,1.361,1.361,0,0,0-1.279,1.1,11.438,11.438,0,0,0,.047,2.676c.143,1.061.4,1.347,1.966,1.347a53.543,53.543,0,0,0,10.963-1.451c6.935-1.694,11.581-6.037,12.747-11.916.625-3.149.143-5.8-1.392-7.67-1.49-1.815-3.888-2.775-6.933-2.775" transform="translate(-147.263 -53.022)" fill="#cd362e"/>
    <path id="パス_12285" data-name="パス 12285" d="M635.7,242.242a5.93,5.93,0,0,0-4.69-2.094,9.259,9.259,0,0,0-8.658,7.223,6.149,6.149,0,0,0,1.157,5.2,5.925,5.925,0,0,0,4.695,2.091,9.26,9.26,0,0,0,8.659-7.223h0a6.157,6.157,0,0,0-1.162-5.2m-1.524,5.127a5.9,5.9,0,0,1-5.511,4.6,3.677,3.677,0,0,1-2.914-1.292,3.828,3.828,0,0,1-.714-3.237l-.18-.036.186.01a5.882,5.882,0,0,1,5.494-4.577h.012a3.676,3.676,0,0,1,2.914,1.292,3.827,3.827,0,0,1,.713,3.238" transform="translate(-163.268 -63.015)" fill="#cd362e"/>
  </g>
</svg>
