<svg id="グループ_5897" data-name="グループ 5897" xmlns="http://www.w3.org/2000/svg" xmlns:xlink="http://www.w3.org/1999/xlink" width="51.217" height="51.217" viewBox="0 0 51.217 51.217">
  <defs>
    <clipPath id="clip-path">
      <rect id="長方形_193" data-name="長方形 193" width="51.217" height="51.217" transform="translate(0 0)" fill="#cd362e"/>
    </clipPath>
  </defs>
  <g id="グループ_383" data-name="グループ 383" transform="translate(0 0)" clip-path="url(#clip-path)">
    <path id="パス_54" data-name="パス 54" d="M17.75,37.3,30.869,24.181v5.788h5.145V15.435H21.48v5.145H27.2L14.148,33.635Zm7.975,14.148a25.012,25.012,0,0,1-10.032-2.027A25.668,25.668,0,0,1,2.027,35.757,25.012,25.012,0,0,1,0,25.724,25.012,25.012,0,0,1,2.027,15.692,25.668,25.668,0,0,1,15.692,2.027,25.012,25.012,0,0,1,25.724,0,25.012,25.012,0,0,1,35.757,2.027,25.668,25.668,0,0,1,49.422,15.692a25.012,25.012,0,0,1,2.027,10.032,25.012,25.012,0,0,1-2.027,10.032A25.668,25.668,0,0,1,35.757,49.422a25.012,25.012,0,0,1-10.032,2.027m0-5.145a19.863,19.863,0,0,0,14.6-5.981,19.863,19.863,0,0,0,5.981-14.6,19.863,19.863,0,0,0-5.981-14.6,19.863,19.863,0,0,0-14.6-5.981,19.863,19.863,0,0,0-14.6,5.981,19.863,19.863,0,0,0-5.981,14.6,19.863,19.863,0,0,0,5.981,14.6,19.863,19.863,0,0,0,14.6,5.981" transform="translate(0 -0.231)" fill="#cd362e"/>
  </g>
</svg>
