<svg id="グループ_5939" data-name="グループ 5939" xmlns="http://www.w3.org/2000/svg" xmlns:xlink="http://www.w3.org/1999/xlink" width="14" height="14" viewBox="0 0 14 14">
  <defs>
    <clipPath id="clip-path">
      <rect id="長方形_212" data-name="長方形 212" width="14" height="14" fill="#fff"/>
    </clipPath>
  </defs>
  <g id="グループ_421" data-name="グループ 421" clip-path="url(#clip-path)">
    <path id="パス_63" data-name="パス 63" d="M7,1.261c1.869,0,2.09.007,2.829.041a3.873,3.873,0,0,1,1.3.241,2.169,2.169,0,0,1,.8.524,2.169,2.169,0,0,1,.524.8,3.873,3.873,0,0,1,.241,1.3c.034.738.041.96.041,2.829s-.007,2.09-.041,2.829a3.873,3.873,0,0,1-.241,1.3,2.318,2.318,0,0,1-1.328,1.329,3.873,3.873,0,0,1-1.3.241c-.738.034-.959.041-2.829.041S4.908,12.732,4.17,12.7a3.873,3.873,0,0,1-1.3-.241,2.169,2.169,0,0,1-.8-.524,2.169,2.169,0,0,1-.524-.8,3.874,3.874,0,0,1-.241-1.3C1.267,9.09,1.26,8.869,1.26,7s.007-2.09.041-2.829a3.874,3.874,0,0,1,.241-1.3,2.169,2.169,0,0,1,.524-.8,2.169,2.169,0,0,1,.8-.524A3.873,3.873,0,0,1,4.17,1.3c.738-.034.96-.041,2.829-.041M7,0C5.1,0,4.86.008,4.113.042a5.138,5.138,0,0,0-1.7.325,3.431,3.431,0,0,0-1.24.807,3.431,3.431,0,0,0-.807,1.24,5.138,5.138,0,0,0-.325,1.7C.007,4.861,0,5.1,0,7S.007,9.139.041,9.886a5.138,5.138,0,0,0,.325,1.7,3.431,3.431,0,0,0,.807,1.24,3.431,3.431,0,0,0,1.24.807,5.139,5.139,0,0,0,1.7.325C4.86,13.992,5.1,14,7,14s2.139-.008,2.886-.042a5.138,5.138,0,0,0,1.7-.325,3.579,3.579,0,0,0,2.047-2.047,5.138,5.138,0,0,0,.325-1.7C13.991,9.139,14,8.9,14,7s-.008-2.139-.042-2.886a5.138,5.138,0,0,0-.325-1.7,3.432,3.432,0,0,0-.807-1.24,3.431,3.431,0,0,0-1.24-.807,5.138,5.138,0,0,0-1.7-.325C9.139.008,8.9,0,7,0" transform="translate(0.001 0)" fill="#fff"/>
    <path id="パス_64" data-name="パス 64" d="M126.15,122.556a3.595,3.595,0,1,0,3.595,3.595,3.595,3.595,0,0,0-3.595-3.595m0,5.928a2.333,2.333,0,1,1,2.333-2.333,2.333,2.333,0,0,1-2.333,2.333" transform="translate(-119.15 -119.151)" fill="#fff"/>
    <path id="パス_65" data-name="パス 65" d="M357.846,88.055a.84.84,0,1,1-.84-.84.84.84,0,0,1,.84.84" transform="translate(-346.269 -84.792)" fill="#fff"/>
  </g>
</svg>
