<svg xmlns="http://www.w3.org/2000/svg" width="35.5" height="35.5" viewBox="0 0 35.5 35.5">
  <g id="グループ_5915" data-name="グループ 5915" transform="translate(0)">
    <circle id="楕円形_89" data-name="楕円形 89" cx="17.75" cy="17.75" r="17.75" transform="translate(0)" fill="#39598c"/>
    <g id="Icon_ionic-logo-instagram" data-name="Icon ionic-logo-instagram" transform="translate(9.328 9.482)">
      <path id="パス_77" data-name="パス 77" d="M16.213,5.878a3.455,3.455,0,0,1,3.445,3.445v6.89a3.455,3.455,0,0,1-3.445,3.445H9.323a3.455,3.455,0,0,1-3.445-3.445V9.323A3.455,3.455,0,0,1,9.323,5.878h6.89m0-1.378H9.323A4.837,4.837,0,0,0,4.5,9.323v6.89a4.837,4.837,0,0,0,4.823,4.823h6.89a4.837,4.837,0,0,0,4.823-4.823V9.323A4.837,4.837,0,0,0,16.213,4.5Z" transform="translate(-4.5 -4.5)" fill="#fff"/>
      <path id="パス_78" data-name="パス 78" d="M24.658,11.067a1.033,1.033,0,1,1,1.033-1.033A1.031,1.031,0,0,1,24.658,11.067Z" transform="translate(-11.912 -6.244)" fill="#fff"/>
      <path id="パス_79" data-name="パス 79" d="M15.384,12.628a2.756,2.756,0,1,1-2.756,2.756,2.758,2.758,0,0,1,2.756-2.756m0-1.378a4.134,4.134,0,1,0,4.134,4.134,4.135,4.135,0,0,0-4.134-4.134Z" transform="translate(-7.116 -7.116)" fill="#fff"/>
    </g>
  </g>
</svg>
