<svg xmlns="http://www.w3.org/2000/svg" xmlns:xlink="http://www.w3.org/1999/xlink" width="343.371" height="61.807" viewBox="0 0 343.371 61.807">
  <defs>
    <clipPath id="clip-path">
      <rect id="長方形_22" data-name="長方形 22" width="343.371" height="61.807" fill="#cd362e"/>
    </clipPath>
  </defs>
  <g id="グループ_5478" data-name="グループ 5478" transform="translate(-111.5 -235.262)">
    <line id="線_1" data-name="線 1" x2="283.232" transform="translate(131.871 283.848)" fill="none" stroke="#cd362e" stroke-width="1"/>
    <g id="グループ_360" data-name="グループ 360" transform="translate(131.5 237.262)">
      <g id="グループ_359" data-name="グループ 359" transform="translate(-20 -2)" clip-path="url(#clip-path)">
        <path id="パス_9" data-name="パス 9" d="M338.7,22.909a4,4,0,0,0-2.593,1.248,1.76,1.76,0,0,1-.52.406,14.06,14.06,0,0,0-3.208,2.576,23.488,23.488,0,0,0-3.154,3.424,2.177,2.177,0,0,1-1.733.763c-.468.042-.937-.737-.765-1.281a3.481,3.481,0,0,1,.574-1.007,13.348,13.348,0,0,0,1.637-2.52,2.1,2.1,0,0,0-.059-2.1c-1.725-.021-3.017,1.012-4.328,1.985-.486.36-.912.809-1.4,1.156a15.79,15.79,0,0,0-4.027,4.172c-.312.466-.663.9-.956,1.383a2.322,2.322,0,0,1-1.347.876.96.96,0,0,1-1.219-.539.893.893,0,0,1,.1-1.1c.242-.3.491-.6.738-.9s.5-.594.791-.947c-.5-.386-.971-.721-1.407-1.1a2.209,2.209,0,0,1-.608-.757,4.458,4.458,0,0,1,.967-4.7,3.88,3.88,0,0,1,4.242-.867,1.942,1.942,0,0,1,1.177,1.318c.18.518.363,1.036.59,1.684,2.06-1.719,4.084-3.22,6.729-3.4,1.808,1.059,1.817,1.071,2.183,2.9a3.958,3.958,0,0,0,.853-.4c1.715-1.394,3.5-2.67,5.328-3.9a4.946,4.946,0,0,1,1.953-.77,1.211,1.211,0,0,1,1.541,1.112,3.411,3.411,0,0,1-.034,1.339c-.216.993-.527,1.963-.75,2.954a4.644,4.644,0,0,0-.1,1.344,1.72,1.72,0,0,0,1.485,1.759,8.61,8.61,0,0,0,4.9-.358c1.233-.421,2.507-.706,3.757-1.07.356-.1.7-.272,1.074-.423.051-.776.04-1.512.159-2.224a7.707,7.707,0,0,1,3.345-4.846c.434-.332.837-.692,1.255-1.034a7.35,7.35,0,0,1,4.236-1.981,2.714,2.714,0,0,1,2.762,3.053,1.93,1.93,0,0,1-.283.774,5.763,5.763,0,0,1-2.237,2.407c-.843.5-1.635,1.095-2.433,1.676a21.061,21.061,0,0,1-3.2,1.628l-1.256.623a4.956,4.956,0,0,0,.792.966,6.682,6.682,0,0,0,3.176,1.133,21.15,21.15,0,0,0,3.255.034,30.1,30.1,0,0,0,3.7-.437,13.6,13.6,0,0,1,1.927-.218,16.119,16.119,0,0,0,2.07-.376q3.52-.626,7.042-1.232a8.232,8.232,0,0,1,.974-.026c.759-.038,1.521-.048,2.276-.137,1.453-.172,2.9-.4,4.352-.585a37.546,37.546,0,0,0,3.842-.612c.84-.2,1.726-.164,2.576-.322,1.28-.239,2.545-.559,3.818-.839,2.073-.455,4.192-.511,6.286-.785a3.9,3.9,0,0,0,.8-.085,26.944,26.944,0,0,1,6.222-1.14c.969-.11,1.935-.263,2.895-.439,1.226-.224,2.444-.491,3.666-.739.213-.043.425-.094.64-.121,1.556-.2,3.116-.363,4.667-.6,1.07-.161,2.123-.453,3.192-.622,2.138-.337,4.263-.741,6.417-1a25.586,25.586,0,0,0,6.709-1.2,1.738,1.738,0,0,1,.64-.1,26.056,26.056,0,0,0,4.506-.637c1.548-.267,3.107-.466,4.664-.672,1.184-.156,2.373-.273,3.56-.414a41,41,0,0,0,7.513-1.352,1.716,1.716,0,0,1,.64-.042.608.608,0,0,1,.486.867c-.165.4-.358.789-.562,1.236a15.673,15.673,0,0,0-2.072-.081c-1.885.164-3.766.4-5.648.6-.432.046-.867.06-1.3.084a82.227,82.227,0,0,0-9.53,1.218c-2.14.373-4.277.759-6.422,1.1-1.177.189-2.365.31-3.549.453-4.528.543-9.015,1.365-13.51,2.139-3.105.535-6.219,1.019-9.329,1.526L396.8,25.1c-2.944.48-5.888.952-8.831,1.441-2.571.427-5.132.925-7.709,1.295-2.365.339-4.748.528-7.119.824-1.45.181-2.892.443-4.338.664s-2.9.43-4.345.665c-.425.069-.839.216-1.26.316a9.582,9.582,0,0,1-2.735.336c-1.131-.06-2.27.063-3.407.1a7.549,7.549,0,0,1-4-1.277,5.052,5.052,0,0,1-1.027-1.075,1.045,1.045,0,0,0-1.184-.351c-1.737.616-3.495,1.181-5.192,1.9a8.128,8.128,0,0,1-5.694.282,3.908,3.908,0,0,1-2.1-2.991,6.053,6.053,0,0,1,.837-3.747c.068-.1.009-.3.009-.577M353.378,26.1c.834-.342,1.647-.224,2.28-.883a1.97,1.97,0,0,1,.805-.544,10.168,10.168,0,0,0,2.761-1.68,6.148,6.148,0,0,0,1.929-2.655c.458-.99-.056-1.668-1.115-1.582a1.326,1.326,0,0,0-.475.087,16.11,16.11,0,0,0-2.443,1.3,13.848,13.848,0,0,0-3.084,3.218,3.608,3.608,0,0,0-.658,2.743m-35.59,3.825a6.455,6.455,0,0,0,1.946-2.3,3.536,3.536,0,0,0,.454-2.131c-.045-.415-.16-.777-.59-.91-2.592.764-3.03,1.425-2.905,4.456l1.1.88" transform="translate(-113.446 -4.806)" fill="#cd362e"/>
        <path id="パス_10" data-name="パス 10" d="M77.311,21.491l1.377.293a3.135,3.135,0,0,1-.267,2.428c-.767,1.556-1.332,3.222-1.971,4.846-.247.627-.464,1.268-.7,1.9a28.91,28.91,0,0,0-.855,5.016,7.433,7.433,0,0,0,0,2.684,6.951,6.951,0,0,0,2.464,4.42,7.7,7.7,0,0,0,4.362,1.579c.376.04.76-.02,1.14-.007a6.41,6.41,0,0,0,3.722-.854c1.252-.766,2.615-1.307,3.874-2.1a26.261,26.261,0,0,0,5.384-4.553c.413-.45.857-.834,1.283-1.253A19.235,19.235,0,0,0,98.792,33.8q.813-1.064,1.605-2.144a10.8,10.8,0,0,0,.644-.975,15.658,15.658,0,0,1,.9-1.611,28.206,28.206,0,0,0,2.185-3.564,16.261,16.261,0,0,0,1.359-2.879,17.619,17.619,0,0,0,.507-3.179,3.5,3.5,0,0,0-.9-2.387c.175-.515.441-.76.87-.784a1.242,1.242,0,0,1,1.137.535,2.348,2.348,0,0,1,.421,1.085,12.14,12.14,0,0,1-.349,4.392,5.148,5.148,0,0,1-.465.888c-.472.892-.97,1.77-1.406,2.681a13.887,13.887,0,0,1-1.4,2.453,36.959,36.959,0,0,0-2,3.285c-.347.576-.706,1.144-1.065,1.712a28.828,28.828,0,0,1-4.4,5,12.053,12.053,0,0,0-1.171,1.177,15.677,15.677,0,0,1-4.547,3.8c-1.311.786-2.7,1.431-4.064,2.117a3.538,3.538,0,0,1-.933.285,20.369,20.369,0,0,1-3.366.562,7.773,7.773,0,0,1-4.8-1.271c-.448-.321-.905-.63-1.354-.951a7.137,7.137,0,0,1-2.82-5.179,16.628,16.628,0,0,1,.626-7.214A6.76,6.76,0,0,0,74.3,30.49a7.194,7.194,0,0,1,.766-2.412,6.828,6.828,0,0,0,.31-.9c-.317.109-.482.116-.574.2-1.659,1.625-3.289,3.283-4.968,4.884-1.2,1.14-2.552,2.109-3.663,3.328a49.386,49.386,0,0,1-3.945,3.535c-1.983,1.761-4.061,3.4-6.129,5.056-1.9,1.515-3.8,3.024-5.761,4.447C47.488,50.7,44.7,52.862,41.66,54.645c-2.08,1.222-4.084,2.587-6.166,3.807-2.508,1.469-5.03,2.92-7.606,4.252a57.219,57.219,0,0,1-7.319,3.24,25.736,25.736,0,0,1-4.279.944,24.893,24.893,0,0,1-4.046.263,10.322,10.322,0,0,1-4.7-1.239,10.363,10.363,0,0,1-3.9-3.017,10.991,10.991,0,0,1-2.347-4.411,2.657,2.657,0,0,0-.223-.634,14.017,14.017,0,0,1-1.03-4.963,27.477,27.477,0,0,1-.012-3.246C.076,48.794.2,47.948.3,47.1s.177-1.694.358-2.518a11.427,11.427,0,0,1,.785-2.576,11.17,11.17,0,0,0,.831-2.392,8.743,8.743,0,0,1,1.056-2.832,3.561,3.561,0,0,0,.332-.774,28.5,28.5,0,0,1,2.1-4.359,12.57,12.57,0,0,0,1.29-3.013A8.332,8.332,0,0,1,7.944,26.9,2.508,2.508,0,0,1,10.3,28.48c-.122.131-.209.28-.253.267a2.117,2.117,0,0,0-2.318.794,3.2,3.2,0,0,0-.511.824c-.131.3-.163.653-.279.966-.212.577-.892.859-.926,1.547-.031.629-.558.958-.764,1.468a26.528,26.528,0,0,0-1.438,3.4,7.839,7.839,0,0,1-.54,1.606c-1.262,2.514-1.535,5.308-2.114,8.016a18.086,18.086,0,0,0,.209,7.914c.075.328.047.682.113,1.013a6.611,6.611,0,0,0,.956,2.87,3.559,3.559,0,0,1,.5,1.064,3.994,3.994,0,0,0,1.4,2.044c.173.13.395.272.461.459.333.952,1.175,1.289,1.883,1.786a7.383,7.383,0,0,0,2.96,1.339,31.927,31.927,0,0,0,3.231.344,9.666,9.666,0,0,0,3.677-.486,21.079,21.079,0,0,1,3.015-.591,10.6,10.6,0,0,0,3.2-1.091c1.054-.553,2.178-.964,3.244-1.523,1.782-.936,3.61-1.776,5.352-2.8.942-.555,1.911-1.06,2.853-1.616,1.081-.639,2.135-1.33,3.221-1.958a8.377,8.377,0,0,0,1.969-1.042,8.737,8.737,0,0,1,1.671-1.308c2.123-1.363,4.248-2.722,6.345-4.126.86-.576,1.652-1.265,2.475-1.9a4.324,4.324,0,0,1,.381-.32c2.961-1.789,5.426-4.3,8.263-6.273a29.3,29.3,0,0,0,2.825-2.531q2.885-2.634,5.766-5.273c.692-.633,1.4-1.253,2.068-1.911.947-.927,1.841-1.915,2.808-2.817a48.908,48.908,0,0,0,4.167-4.506,4.6,4.6,0,0,0,.666-1.15c.194-.458.306-.955.468-1.48" transform="translate(0 -5.345)" fill="#cd362e"/>
        <path id="パス_11" data-name="パス 11" d="M205.281,43.182l.993.813a1.554,1.554,0,0,1-1.434,1.243,1.392,1.392,0,0,1-1.274-.621,2.283,2.283,0,0,1-.193-1.96c.032-.154.184-.276.255-.426a42.726,42.726,0,0,1,3.3-5.772c.28-.41.456-.895.718-1.319,2.18-3.526,4.38-7.04,6.552-10.573.91-1.479,1.782-2.983,2.644-4.493,1.921-3.362,3.843-6.724,5.728-10.107,1.063-1.909,2.01-3.888,3.1-5.782.556-.971,1.024-1.976,1.494-2.989A3.4,3.4,0,0,1,227.8.228a.891.891,0,0,1,.711-.217A.8.8,0,0,1,229.1.9a7.526,7.526,0,0,1-.554,1.4c-1.013,1.872-2.02,3.751-3.1,5.581-.5.854-1.183,1.592-1.754,2.4a6.861,6.861,0,0,0-.749,1.3,30.538,30.538,0,0,1-3.33,6c-.416.588-.664,1.3-1.038,1.927Q215.6,24.5,212.6,29.457c-1.213,1.181-1.6,2.959-2.746,4.187a13.067,13.067,0,0,0-1.1,2.054,24.8,24.8,0,0,0-3.421,6.913,3.594,3.594,0,0,0-.05.572" transform="translate(-73.218 0)" fill="#cd362e"/>
        <path id="パス_12" data-name="パス 12" d="M188.968,30.776c-.515.672-.82,1.066-1.121,1.464a9.627,9.627,0,0,1-4.374,3.119,3.553,3.553,0,0,1-3.15-.055c-.313.228-.141.508-.04.747a7.7,7.7,0,0,0,.42.725,2.727,2.727,0,0,0,3.075,1.588,13.19,13.19,0,0,1,1.775-.213,2.369,2.369,0,0,0,1.674-.457c.438-.364,1.005-.276,1.7-.1-.237.3-.356.616-.553.686-1.844.656-3.7,1.444-5.668,1.33a4.424,4.424,0,0,1-4.078-2.625c-.249-.553-.689-1.009-.669-1.705a6.506,6.506,0,0,1,.161-1.506c.213-.814.366-1.655.528-2.483a5.349,5.349,0,0,1,2.454-3.633,2.072,2.072,0,0,1,1.4-.183,1.978,1.978,0,0,0,1.4-.224,8.866,8.866,0,0,1,1.23-.425,3.15,3.15,0,0,1,3.032.779,2.585,2.585,0,0,1,.8,1.811,8.822,8.822,0,0,1,.014,1.359m-1.717-1.989a2.694,2.694,0,0,0-3.153.191c-.39.3-.792.6-1.155.936a6.79,6.79,0,0,0-2.006,2.411,1.031,1.031,0,0,0,.489,1.427,1.506,1.506,0,0,0,1.084.2,6.334,6.334,0,0,0,2.53-1.448,4.862,4.862,0,0,0,2.212-3.714" transform="translate(-64.106 -8.766)" fill="#cd362e"/>
        <path id="パス_13" data-name="パス 13" d="M285.5,39.695a4.593,4.593,0,0,1-2.919-.969.783.783,0,0,1-.326-.369c-.314-1.061-.906-2.091-.6-3.252a14.262,14.262,0,0,1,3.782-6.616,4.365,4.365,0,0,1,1.548-.9,2.228,2.228,0,0,1,1.091.089,1.452,1.452,0,0,1,.752.287c.884.913,2.152.971,3.159,1.661,1.888,1.295,1.649,2.715.884,4.4a7.016,7.016,0,0,1-2.118,2.546c-.818.648-1.633,1.306-2.5,1.884a13.652,13.652,0,0,1-2.02,1.07,2.2,2.2,0,0,1-.738.161m3.218-9.725a2.159,2.159,0,0,1-2.105.755,1.065,1.065,0,0,0-1.148.48,11.048,11.048,0,0,0-1.821,4.128c-.15,1.1,0,2.173,1.189,2.667a9.012,9.012,0,0,0,3.714-1.472,8.67,8.67,0,0,0,3.009-3.263,1.847,1.847,0,0,0-.6-2.778,1.806,1.806,0,0,0-.731-.284c-.466-.1-.942-.148-1.509-.232" transform="translate(-101.436 -9.047)" fill="#cd362e"/>
        <path id="パス_14" data-name="パス 14" d="M255.927,35.665a2.422,2.422,0,0,0,2.55,1.784,8.324,8.324,0,0,0,1.46-.064,36.117,36.117,0,0,1,4.467-.7,6.055,6.055,0,0,0,1.246-.355,9.2,9.2,0,0,1,.94-.232c.259-.044.527-.035,1.055-.063-.3.3-.4.487-.544.538q-2.145.761-4.3,1.482a11.89,11.89,0,0,1-5.447.718,3.4,3.4,0,0,1-3.224-2.661,2.723,2.723,0,0,1,.465-2.529,14.025,14.025,0,0,1,5.717-4.04c.351-.15.665-.331,1-.507.765-.408,1.558-.756,2.354-1.093a3.789,3.789,0,0,1,.949-.226,1.75,1.75,0,0,1,1.937,2.067.428.428,0,0,1-.629.287c-.333-.259-.53-.822-1.042-.682-.84.23-1.708-.15-2.554.283a19.814,19.814,0,0,0-5.11,3.532,4.482,4.482,0,0,0-.738,1.106c-.207.4-.341.835-.546,1.354" transform="translate(-91.505 -9.097)" fill="#cd362e"/>
      </g>
    </g>
  </g>
</svg>
