<svg xmlns="http://www.w3.org/2000/svg" xmlns:xlink="http://www.w3.org/1999/xlink" width="24" height="24" viewBox="0 0 24 24">
  <defs>
    <clipPath id="clip-path">
      <rect id="長方形_193" data-name="長方形 193" width="24" height="24" fill="#fff"/>
    </clipPath>
  </defs>
  <g id="グループ_383" data-name="グループ 383" clip-path="url(#clip-path)">
    <path id="パス_54" data-name="パス 54" d="M8.317,17.479l6.148-6.148v2.712h2.411V7.233H10.065V9.643h2.682L6.63,15.761Zm3.737,6.63a11.721,11.721,0,0,1-4.7-.95,12.028,12.028,0,0,1-6.4-6.4,11.721,11.721,0,0,1-.95-4.7,11.721,11.721,0,0,1,.95-4.7,12.028,12.028,0,0,1,6.4-6.4,11.721,11.721,0,0,1,4.7-.95,11.721,11.721,0,0,1,4.7.95,12.028,12.028,0,0,1,6.4,6.4,11.721,11.721,0,0,1,.95,4.7,11.721,11.721,0,0,1-.95,4.7,12.028,12.028,0,0,1-6.4,6.4,11.721,11.721,0,0,1-4.7.95m0-2.411A9.308,9.308,0,0,0,18.9,18.9a9.308,9.308,0,0,0,2.8-6.841,9.308,9.308,0,0,0-2.8-6.841,9.308,9.308,0,0,0-6.841-2.8,9.308,9.308,0,0,0-6.841,2.8,9.308,9.308,0,0,0-2.8,6.841,9.308,9.308,0,0,0,2.8,6.841,9.308,9.308,0,0,0,6.841,2.8" transform="translate(0 -0.108)" fill="#fff"/>
  </g>
</svg>
