<svg id="グループ_6095" data-name="グループ 6095" xmlns="http://www.w3.org/2000/svg" width="49.97" height="49.97" viewBox="0 0 49.97 49.97">
  <ellipse id="楕円形_89" data-name="楕円形 89" cx="24.985" cy="24.985" rx="24.985" ry="24.985" transform="translate(0)" fill="#fff"/>
  <path id="パス_12315" data-name="パス 12315" d="M21.654,21.968c-.9,4.244-4.53,5.974-9.029,5.635a7.433,7.433,0,0,1-4.111-1.587,3.287,3.287,0,0,1-1.456.429c-2.284.15-3.679-1.4-3.1-2.712a1.931,1.931,0,0,1,2.454-.912A5.448,5.448,0,0,1,8.09,23.871c.65-1.041.371-2.47.133-4.4A25.515,25.515,0,0,1,9.068,7.688c.382.621.957,1.609.957,1.609s.743-.464,1.769-.988a20.719,20.719,0,0,0-1.371,9.919c.242,2.6.6,5.437-.895,6.9a6.032,6.032,0,0,0,3.527,1.893c3.213.311,4.81-1.472,5.232-5.474a15.918,15.918,0,0,0,.087-2.485c-.12-2.526-1.029-4.169-1.711-4.723a5.38,5.38,0,0,1-1.822.306c-1.169.008-2.192-.223-2.123-1.174.055-.717.941-1.253,2.558-.767.241.075.481.153.707.245h.005l.469.214c.394-.31,1.169-1.1,1.352-3.179.018-.236.038-.883.038-.883,0-4.284-1.955-6.161-4.938-6.161A7.046,7.046,0,0,0,8.73,4.7a13.654,13.654,0,0,0-2.4,2.98c-.136-.869-.253-1.99-.253-1.99s-.884-.173-1.6-.364A12.266,12.266,0,0,1,7.115,3.49a13.643,13.643,0,0,1,5.9-1.441c5.666.106,7.686,3.928,7.665,6.784a7.185,7.185,0,0,1-.059.962,5.042,5.042,0,0,1-2.9,4.043,6.628,6.628,0,0,1,4.09,5.387,9.758,9.758,0,0,1-.153,2.743" transform="translate(12.15 10.138)" fill="#7c560f"/>
</svg>
