<svg id="グループ_6094" data-name="グループ 6094" xmlns="http://www.w3.org/2000/svg" width="49.97" height="49.97" viewBox="0 0 49.97 49.97">
  <ellipse id="楕円形_89" data-name="楕円形 89" cx="24.985" cy="24.985" rx="24.985" ry="24.985" transform="translate(0)" fill="#fff"/>
  <g id="Icon_ionic-logo-instagram" data-name="Icon ionic-logo-instagram" transform="translate(13.131 13.347)">
    <path id="パス_77" data-name="パス 77" d="M20.987,6.44a4.863,4.863,0,0,1,4.849,4.849v9.7a4.863,4.863,0,0,1-4.849,4.849h-9.7A4.863,4.863,0,0,1,6.44,20.987v-9.7A4.863,4.863,0,0,1,11.289,6.44h9.7m0-1.94h-9.7A6.809,6.809,0,0,0,4.5,11.289v9.7a6.809,6.809,0,0,0,6.789,6.789h9.7a6.809,6.809,0,0,0,6.789-6.789v-9.7A6.809,6.809,0,0,0,20.987,4.5Z" transform="translate(-4.5 -4.5)" fill="#7c560f"/>
    <path id="パス_78" data-name="パス 78" d="M25.08,11.909a1.455,1.455,0,1,1,1.455-1.455A1.451,1.451,0,0,1,25.08,11.909Z" transform="translate(-7.138 -5.121)" fill="#7c560f"/>
    <path id="パス_79" data-name="パス 79" d="M17.069,13.19a3.879,3.879,0,1,1-3.879,3.879,3.883,3.883,0,0,1,3.879-3.879m0-1.94a5.819,5.819,0,1,0,5.819,5.819,5.82,5.82,0,0,0-5.819-5.819Z" transform="translate(-5.431 -5.431)" fill="#7c560f"/>
  </g>
</svg>
