<svg id="グループ_5382" data-name="グループ 5382" xmlns="http://www.w3.org/2000/svg" xmlns:xlink="http://www.w3.org/1999/xlink" width="18.931" height="19.007" viewBox="0 0 18.931 19.007">
  <defs>
    <clipPath id="clip-path">
      <rect id="長方形_3099" data-name="長方形 3099" width="18.931" height="19.007" transform="translate(0 0)" fill="#7c560f"/>
    </clipPath>
  </defs>
  <g id="グループ_5381" data-name="グループ 5381" transform="translate(0 0)" clip-path="url(#clip-path)">
    <path id="パス_10467" data-name="パス 10467" d="M13.424,19.007H5.507A5.533,5.533,0,0,1,0,13.5V5.507A5.533,5.533,0,0,1,5.507,0h7.917a5.533,5.533,0,0,1,5.507,5.507v7.955a5.541,5.541,0,0,1-5.507,5.545M5.469,1.759A3.8,3.8,0,0,0,1.683,5.545V13.5a3.8,3.8,0,0,0,3.786,3.786h7.917A3.8,3.8,0,0,0,17.172,13.5V5.507a3.8,3.8,0,0,0-3.786-3.786H5.469Z" transform="translate(0 0)" fill="#7c560f"/>
    <path id="パス_10468" data-name="パス 10468" d="M16.857,21.814a4.857,4.857,0,1,1,4.857-4.857,4.864,4.864,0,0,1-4.857,4.857m0-7.993a3.136,3.136,0,1,0,3.136,3.136,3.15,3.15,0,0,0-3.136-3.136" transform="translate(-7.411 -7.473)" fill="#7c560f"/>
    <path id="パス_10469" data-name="パス 10469" d="M36.147,8.7A1.147,1.147,0,1,1,35,9.847,1.147,1.147,0,0,1,36.147,8.7" transform="translate(-21.614 -5.373)" fill="#7c560f"/>
  </g>
</svg>
