<svg id="data-text" xmlns="http://www.w3.org/2000/svg" xmlns:xlink="http://www.w3.org/1999/xlink" width="470.503" height="136.954" viewBox="0 0 470.503 136.954">
  <defs>
    <clipPath id="clip-path">
      <rect id="長方形_3655" data-name="長方形 3655" width="470.503" height="136.954" fill="#75a7e9"/>
    </clipPath>
  </defs>
  <g id="グループ_6065" data-name="グループ 6065" transform="translate(0 0)" clip-path="url(#clip-path)">
    <path id="パス_15446" data-name="パス 15446" d="M13.455,50.061c-1.266,0-1.669-.19-1.512-.949a7.342,7.342,0,0,1,.322-.95c.746-1.772,1.341-3.417,1.908-4.936l2.038-5.567a3.224,3.224,0,0,0,.207-.7c.131-.635-.133-.888-1.272-.888-.95,0-2.355.064-3.177.064-1.329,0-1.5-.381-1.189-1.9l.183-.886c.341-1.645.708-1.9,2.355-1.9,1.315.062,2.265.062,3.656.062,1.265,0,1.547-.443,1.972-1.581l1.91-5.252a3.2,3.2,0,0,0,.206-.7c.131-.632-.132-.886-1.4-.886-1.836,0-3.178.063-4.633.063-1.645,0-1.909-.253-1.569-1.9l.184-.886c.34-1.644.708-1.9,2.354-1.9,1.329,0,2.771.063,5.176.063,1.644,0,2.013-.253,2.543-1.9l1.342-3.732c.554-1.457,1.162-3.165,1.677-4.746.543-1.71.912-1.961,2.559-1.961h1.644c1.266,0,1.669.19,1.512.95a7.434,7.434,0,0,1-.323.95c-.656,1.643-1.276,3.415-1.817,4.808l-1.342,3.732a4.834,4.834,0,0,0-.233.823c-.183.885.157,1.075,1.422,1.075h5.822c1.644,0,2.014-.253,2.607-1.9l1.342-3.732c.465-1.329,1.084-3.1,1.678-4.746.543-1.71.912-1.961,2.557-1.961h1.582c1.266,0,1.669.19,1.512.95a7.823,7.823,0,0,1-.323.95c-.683,1.771-1.276,3.415-1.83,4.87L43.65,16.971a3.071,3.071,0,0,0-.208.7c-.131.632.133.885,1.208.885,1.138,0,2.417-.063,3.177-.063,1.265,0,1.363.443,1.062,1.9l-.184.886c-.3,1.454-.582,1.9-1.847,1.9-1.139,0-2.013-.063-3.784-.063-1.392,0-1.723.379-2.149,1.519l-2,5.377a1.974,1.974,0,0,0-.18.57c-.144.7.183.949,1.447.949,2.026,0,3.227,0,4.443-.062,1.708,0,1.909.252,1.568,1.9l-.184.886c-.34,1.645-.645,1.9-2.354,1.9-1.189-.064-2.39-.064-4.921-.064-1.645,0-2.014.253-2.609,1.9l-1.984,5.315c-.478,1.391-1.086,3.1-1.692,4.808-.543,1.708-.912,1.961-2.556,1.961H28.2c-1.266,0-1.67-.19-1.512-.949a7.2,7.2,0,0,1,.323-.95c.669-1.71,1.276-3.417,1.83-4.871l1.985-5.315a4.72,4.72,0,0,0,.234-.823c.183-.885-.157-1.076-1.423-1.076H23.878c-1.646,0-2.015.253-2.609,1.9l-1.909,5.251c-.553,1.456-1.1,3.164-1.7,4.873-.543,1.708-.911,1.961-2.556,1.961ZM24.084,29.878a4.59,4.59,0,0,0-.233.822c-.183.885.157,1.075,1.422,1.075h6.075c1.644,0,2.013-.253,2.607-1.9l1.806-5.061a4.652,4.652,0,0,0,.233-.823c.184-.886-.155-1.076-1.42-1.076H28.562c-1.646,0-2.014.253-2.609,1.9Z" transform="translate(-10.646 12.089)" fill="#75a7e9"/>
    <path id="パス_15447" data-name="パス 15447" d="M98.051,22.651c2.595,0,5.291-.191,7.886-.191,1.581,0,1.54.507,1.081,2.723-.406,1.961-.7,2.783-2.157,2.783-2.594,0-5.225-.126-7.883-.126H87.995c-1.709,0-2.1,1.582-2.539,2.783a39.693,39.693,0,0,1-6.623,11.832A33.761,33.761,0,0,1,67.638,51c-1.333.634-6.017,2.783-7.156,2.783-1.2,0-3.205-3.163-3.008-4.111.144-.7,1.258-.888,1.867-1.076a37.29,37.29,0,0,0,8.882-3.479,26.542,26.542,0,0,0,10.7-12.276,28.843,28.843,0,0,0,1.365-3.543,1.172,1.172,0,0,0-1.218-1.454H65.215c-2.593,0-5.215.126-7.808.126-1.581,0-1.371-1.013-.979-2.911.315-1.518.6-2.595,2.055-2.595,2.657,0,5.212.191,7.806.191Zm-6.2-16.83c2.594,0,5.15-.128,7.745-.128,1.709,0,1.423,1.076,1.042,2.911-.34,1.645-.523,2.531-2.105,2.531-2.593,0-5.162-.125-7.756-.125h-13.6c-2.594,0-5.278.125-7.87.125-1.519,0-1.349-.823-1-2.531.405-1.96.537-2.911,2.246-2.911,2.595,0,5.1.128,7.694.128Zm19.206,5.946c-.17.823-2.458,2.405-3.281,2.405-.381,0-.554-.381-.692-.632a41.875,41.875,0,0,0-3.3-5.124c-.075-.254-.389-.57-.336-.823.144-.7,2.5-2.278,3.192-2.278s4.58,5.695,4.422,6.452m6.188-5.441c-.171.823-2.409,2.467-3.231,2.467-.379,0-.618-.378-.742-.7a35.134,35.134,0,0,0-3.317-5.062,1.208,1.208,0,0,1-.273-.823C109.826,1.519,112.1,0,112.8,0c.444,0,1.584,1.519,2.223,2.4.54.759,2.33,3.417,2.226,3.923" transform="translate(-2.865 11.026)" fill="#75a7e9"/>
    <path id="パス_15448" data-name="パス 15448" d="M155.885,20.776c2.657,0,6.62-.19,7.631-.19,1.582,0,1.617.443,1.067,3.1-.3,1.456-.563,2.721-2.082,2.721-2.594,0-5.149-.191-7.742-.191H125.717c-2.595,0-5.229.191-7.821.191-1.583,0-1.321-1.266-1.02-2.721.55-2.658.831-3.1,2.35-3.1,1.012,0,4.9.19,7.616.19Z" transform="translate(7.481 14.547)" fill="#75a7e9"/>
    <path id="パス_15449" data-name="パス 15449" d="M216.246,11.251a20.47,20.47,0,0,0,4.115-.317c.19,0,.456-.062.708-.062.949,0,2.232,2.973,2.048,3.858a2.261,2.261,0,0,1-.576.95,20.34,20.34,0,0,0-2.363,3.163,131.6,131.6,0,0,1-8.342,11.579,3.487,3.487,0,0,0-.947,1.518c-.222,1.076.573,1.519,1.214,2.089.842.823,2.7,2.214,2.548,2.973-.2.95-2.888,3.861-3.963,3.861-.379,0-.581-.254-.844-.507-.728-.759-1.534-1.454-2.327-2.214a1.655,1.655,0,0,0-1.247-.7c-.95,0-1.765.885-2.465,1.519a68.739,68.739,0,0,1-16.311,10.945c-1.41.7-7.147,3.353-8.286,3.353-1.329,0-3.106-3.036-2.923-3.922.158-.76,1.21-.95,2.757-1.392a58.8,58.8,0,0,0,21.139-11.96,3.927,3.927,0,0,0,1.378-1.771,1.49,1.49,0,0,0-.76-1.519,62.524,62.524,0,0,0-6.528-3.922c-.341-.191-1.021-.57-.916-1.076.157-.76,2.669-3.733,3.808-3.733,1.013,0,6.318,3.416,7.375,4.113a2.951,2.951,0,0,0,1.614.76c1.139,0,1.716-.951,2.57-2.025,1.124-1.457,5.826-7.973,6.1-9.3.287-1.391-1.509-1.266-2.459-1.266H198.507c-1.329,0-1.9.634-2.808,1.645a123.967,123.967,0,0,1-10.5,10.06,3.457,3.457,0,0,1-1.983,1.012c-1.012,0-3.782-1.9-3.573-2.91.1-.506.689-.885,1.057-1.139,7.4-5.188,16.617-14.867,20.921-22.523.3-.507.771-1.583,1.466-1.583.126,0,5.3,2.531,5.154,3.227a1.165,1.165,0,0,1-.789.76c-1.1.443-1.193.568-2.151,1.834-.434.57-.972,1.329-1.827,2.405a3.279,3.279,0,0,0-.831,1.266c-.131.631.386.884.881.949Z" transform="translate(17.677 11.165)" fill="#75a7e9"/>
    <path id="パス_15450" data-name="パス 15450" d="M241.23,10.4c9.342-.506,18.727-1.518,28.124-2.594,4.609-.569,10.358-1.138,14.881-1.9a3.987,3.987,0,0,1,.849-.128c.822,0,.8.7.8,1.328a20.824,20.824,0,0,1-.328,3.417c-.288,1.392-1.175,1.392-2.755,1.392a38.761,38.761,0,0,0-11.018,1.265,25.963,25.963,0,0,0-13.176,9.554A30.939,30.939,0,0,0,252.6,34.949c-.733,3.543,0,7.34,3.179,8.794a17.361,17.361,0,0,0,7.053,1.077c.823,0,1.721-.064,2.48-.064s1.456,0,1.273.886a15.433,15.433,0,0,1-1.738,4.113,1.823,1.823,0,0,1-1.9.95c-10.185,0-18.488-3.608-16.066-15.313A36.834,36.834,0,0,1,258.9,15.842c1.069-.885,1.438-1.139,1.5-1.456.091-.443-.389-.569-.7-.569-.95,0-8.7,1.075-10.259,1.266-3.395.506-6.789,1.012-10.187,1.834a5.545,5.545,0,0,1-.988.191c-1.391,0-.814-4.936-.734-5.315.288-1.392,1.084-1.266,3.7-1.392m37.347,10.313c.34.506,1.905,2.721,1.761,3.418-.183.884-2.521,2.4-3.344,2.4-.379,0-.555-.378-.679-.7a58.958,58.958,0,0,0-3.1-5.189c-.085-.19-.388-.568-.335-.822.158-.759,2.534-2.152,3.166-2.152s1.621,1.646,2.534,3.038m9.781.128c-.171.822-2.521,2.4-3.344,2.4-.381,0-.541-.443-.728-.759a40.413,40.413,0,0,0-3.053-5.124c-.138-.253-.389-.569-.322-.886.143-.7,2.533-2.151,3.227-2.151s4.351,5.883,4.22,6.518" transform="translate(28.12 12.015)" fill="#75a7e9"/>
    <path id="パス_15451" data-name="パス 15451" d="M313.746,38.511A26.018,26.018,0,0,1,299.124,52.3c-2.144.886-7.432,2.594-9.458,2.594-1.834,0-1.939-3.163-1.808-3.8.21-1.012,1.032-1.012,3-1.328,7.993-1.328,15.843-5.314,18.785-13.729.335-1.013.567-1.519,1.2-1.519a20.461,20.461,0,0,1,3.977,1.266c.405.189,1.174.441,1.057,1.012-.105.507-.841.7-1.322.885a1.434,1.434,0,0,0-.8.823m17.659-4.62h-3.163A1.845,1.845,0,0,0,326.18,35.6l-2.29,11.073c-.538,2.594.246,2.785,2.651,2.785h5.63c4.618,0,5.448-.635,8.119-8.353a1.5,1.5,0,0,1,1.552-1.076c.822,0,3.4.381,3.048,2.089a30.47,30.47,0,0,1-5.4,10.185c-2,2.025-5.215,1.963-7.555,1.963h-8.985c-3.226,0-5.6-.759-4.827-4.493.235-1.138.534-2.278.756-3.353l2.226-10.757c.261-1.266-.2-1.772-1.405-1.772H306.414c-.823,0-1.167.444-1.577,1.2-.272.7-.69.885-2.778.885-2.151,0-2.555-.189-2.28-1.518.341-1.645.758-3.355,1.1-5l4.307-20.816c.314-1.519.566-3.038.867-4.492.471-2.278,1.424-2.912,3.575-2.912,1.646,0,3.278.064,4.923.064h22.27c1.583,0,3.241-.064,4.887-.064,2.088,0,2.855.57,2.384,2.848-.315,1.519-.691,3.038-1.006,4.556L338.79,29.4c-.341,1.645-.556,3.291-.909,5-.288,1.393-.82,1.519-2.971,1.519s-2.288-.253-2.361-.822c-.159-.759-.258-1.2-1.144-1.2M306.266,27.88a1.14,1.14,0,0,0,1.2,1.519h24.74a1.786,1.786,0,0,0,1.833-1.519l.472-2.278a1.121,1.121,0,0,0-1.2-1.519h-24.74a1.833,1.833,0,0,0-1.831,1.519Zm1.977-9.553a1.162,1.162,0,0,0,1.2,1.519h24.74a1.832,1.832,0,0,0,1.833-1.519l.381-1.835c.2-.949-.255-1.519-1.2-1.519h-24.74a1.832,1.832,0,0,0-1.831,1.519Zm27.815-7.53a1.786,1.786,0,0,0,1.833-1.519l.379-1.834a1.14,1.14,0,0,0-1.2-1.519h-24.74a1.882,1.882,0,0,0-1.833,1.519l-.379,1.834a1.14,1.14,0,0,0,1.2,1.519Z" transform="translate(36.752 11.239)" fill="#75a7e9"/>
    <path id="パス_15452" data-name="パス 15452" d="M393.42,9.233c-.078.378-1.069.884-1.424,1.075-3.381,1.961-9.541,7.277-12.572,10a2.149,2.149,0,0,0-.639.949c-.078.381.249.634.629.634a8.77,8.77,0,0,0,1.114-.19,15.167,15.167,0,0,1,3.7-.444c8.1,0,14.367,4.873,12.573,13.542-2.225,10.755-13.1,16.512-22.968,16.512-3.163,0-6.335-.569-8.524-2.531a5.712,5.712,0,0,1-1.884-5.568c.837-4.049,5.059-7.024,8.982-7.024,3.986,0,8.457,3.165,7.54,7.593a9.091,9.091,0,0,1-.58,1.582.477.477,0,0,0,.5.634c1.329,0,9.817-3.1,11.44-10.947,1.335-6.455-3.683-9.11-9.441-9.11-5.631,0-10.746,2.087-15.556,6.074-2.813,2.278-5.538,4.745-8.2,7.212-.471.443-.8.822-1.183.822-1.266,0-3.107-2.719-2.923-3.607.144-.7,1.084-1.265,1.618-1.707,9.335-6.9,17.919-14.743,26.652-22.4.395-.379.916-.759,1.034-1.328.1-.506-.3-.7-.741-.7a8.57,8.57,0,0,0-1.242.191c-4.118.947-8.312,1.643-12.456,2.4a15.014,15.014,0,0,1-1.634.253c-1.391,0-.786-3.543-.576-4.556.3-1.454.644-1.581,2.416-1.581h1.139a67.136,67.136,0,0,0,16.428-2.341,10.163,10.163,0,0,1,2.331-.569c2.405,0,4.655,4.113,4.445,5.126M371.667,40.361a3.84,3.84,0,0,0-3.689,2.847c-.538,2.594,2.68,3.86,4.833,3.86,1.265,0,2.073-1.456,2.3-2.532a3.319,3.319,0,0,0-3.439-4.175" transform="translate(48.069 11.729)" fill="#75a7e9"/>
    <path id="パス_15453" data-name="パス 15453" d="M30.264,89.1c4.428,5.821,9.833,12.718,15.713,17.019.328.253.869.7.763,1.2-.183.884-3.649,4.492-5.231,4.492-1.012,0-2.869-2.342-3.535-3.1C33.367,103.465,29.2,97.9,25.041,92.33c-.69-.949-1.754-2.532-3.145-2.532-1.836,0-4.469,2.025-6.109,3.226-3.587,2.659-7.456,5.759-10.8,8.8a3.434,3.434,0,0,1-1.561.821c-1.013,0-3.595-3.732-3.411-4.618.131-.632,1.247-1.138,1.82-1.456,5.195-2.783,10.119-6.705,14.965-10.249a11.678,11.678,0,0,1,6.267-2.468c3.543,0,5.472,2.911,7.2,5.252m20.215-4.43a7.953,7.953,0,0,1-7.408,6.138A4.877,4.877,0,0,1,38.2,84.673a7.948,7.948,0,0,1,7.407-6.136,4.824,4.824,0,0,1,4.868,6.136m-9.554,0a2.716,2.716,0,0,0,2.71,3.418,4.459,4.459,0,0,0,4.123-3.418,2.688,2.688,0,0,0-2.71-3.416,4.459,4.459,0,0,0-4.123,3.416" transform="translate(0 13.43)" fill="#75a7e9"/>
    <path id="パス_15454" data-name="パス 15454" d="M85.393,114.565c-.562,2.72-.936,5.442-1.5,8.163-.328,1.581-1.189,1.771-3.087,1.771-2.658,0-3.111-.252-2.8-1.771.55-2.659,1.239-5.378,1.789-8.037l3.9-18.854c.078-.379.543-1.707-.532-1.707a4.294,4.294,0,0,0-1.815.821,140.812,140.812,0,0,1-15.537,8.732,6.669,6.669,0,0,1-2.055.759c-.95,0-3.143-2.847-2.935-3.86.118-.569.614-.822,1.1-1.013,12.944-5.377,29.961-16.069,38.886-27.4.255-.315.676-.822,1.055-.822.634,0,2.408,1.519,2.9,1.9.164.128.265.254.429.381.718.507,1.423,1.075,1.306,1.644-.105.506-.625.57-1.234.76a3.7,3.7,0,0,0-1.97,1.265,131.1,131.1,0,0,1-11.1,9.935,3.422,3.422,0,0,0-1.623,2.342Z" transform="translate(10.399 12.202)" fill="#75a7e9"/>
    <path id="パス_15455" data-name="パス 15455" d="M161.191,77.863c.949,0,1.834,0,2.543-.063a6.574,6.574,0,0,1,1.1-.128c1.392,0,3.032,2.785,2.913,3.354-.144.7-.742,1.139-1.76,3.924-4.525,12.084-11.141,20.815-22.767,27.775a70.708,70.708,0,0,1-13.065,6.263,6.639,6.639,0,0,1-2.143.57c-1.2,0-2.422-2.973-2.213-3.985.144-.7.74-.823,1.349-1.013A56.867,56.867,0,0,0,148.6,102.918a41.184,41.184,0,0,0,11.191-17.084c.066-.315.323-.949.389-1.265.262-1.266-.725-1.391-1.991-1.391H134.529c-2.593,0-5.213.125-7.807.125-1.645,0-1.528-.569-1.043-2.909.392-1.9.55-2.659,2.131-2.659,2.658,0,5.226.128,7.883.128Z" transform="translate(15.583 13.283)" fill="#75a7e9"/>
    <path id="パス_15456" data-name="パス 15456" d="M192.766,93.068l11.173-.19a2.271,2.271,0,0,0,2.168-1.9l.275-1.644c.356-2.025.725-4.113.954-6.137.04-.189.041-.506.08-.7.144-.7.628-.886,1.26-.886a32.3,32.3,0,0,1,3.388.444c.542.126,1.276.252,1.121,1.012-.092.444-.45.632-.767.95-.458.378-.562.884-.733,1.707-.249,1.2-.5,2.405-.7,3.67l-.263,1.581a1.4,1.4,0,0,0,1.405,1.772l2.543-.062c1.2,0,5.923-.191,6.177-.191,1.391,0,1.335.888.968,2.659-.328,1.581-.749,2.087-2.077,2.087h-5.948l-2.481.063a2.233,2.233,0,0,0-2.139,1.772l-2.164,11.388c-.171.824-.292,1.708-.461,2.532-1.1,5.314-3.089,7.592-10.3,7.592-.821,0-1.44-.063-1.663-.821a8.214,8.214,0,0,1-.094-2.912,1.171,1.171,0,0,1,1.285-1.012c.253,0,1.189.064,2.074.064,3.417,0,3.652-.823,4.319-4.049l.2-.95,1.67-8.985c.091-.441-.02-.823-.527-.823s-.775.382-1.156.7a88.885,88.885,0,0,1-14.481,11.58c-.878.568-3.814,2.531-4.7,2.531s-2.49-2.026-2.306-2.911c.117-.57.763-.95,1.261-1.2a74.253,74.253,0,0,0,15.22-10.565c.546-.507,2.8-2.532,2.905-3.038a.562.562,0,0,0-.615-.7l-7.746.126c-1.645,0-5.354.19-6.113.19-1.265,0-1.182-1.012-.973-2.025l.144-.7c.274-1.329.482-2.025,1.938-2.025Z" transform="translate(20.387 13.957)" fill="#75a7e9"/>
    <path id="パス_15457" data-name="パス 15457" d="M280.874,76.62c.886,0,1.772,0,2.481-.062a7.313,7.313,0,0,1,1.165-.129c1.2,0,3.1,2.468,2.939,3.228-.17.821-.742,1.138-1.787,4.049-4.892,13.857-11.217,24.549-24.175,33.659-1.474,1.013-6.992,4.747-8.321,4.747-1.265,0-2.93-2.659-2.747-3.545.145-.7,1.326-1.2,1.884-1.456a52.935,52.935,0,0,0,23.264-22.841,58.863,58.863,0,0,0,4.275-10.882c.288-1.394-.888-1.519-1.964-1.519H252.644a2.361,2.361,0,0,0-2.2,1.772l-2,9.68c-.314,1.519-.527,3.164-.8,4.493-.3,1.454-.883,1.519-3.541,1.519-2.088,0-2.339-.317-2.1-1.456.327-1.582.7-3.1,1.019-4.618l2.881-13.92c.445-2.152.891-2.783,3.8-2.783,2.025,0,4.1.062,6.124.062Z" transform="translate(24.976 13.07)" fill="#75a7e9"/>
    <path id="パス_15458" data-name="パス 15458" d="M337.472,90.776c2.657,0,6.619-.19,7.631-.19,1.581,0,1.616.443,1.067,3.1-.3,1.457-.563,2.723-2.082,2.723-2.594,0-5.149-.191-7.742-.191H307.3c-2.595,0-5.229.191-7.821.191-1.583,0-1.321-1.266-1.02-2.723.549-2.657.83-3.1,2.349-3.1,1.013,0,4.9.19,7.617.19Z" transform="translate(34.607 15.491)" fill="#75a7e9"/>
    <path id="パス_15459" data-name="パス 15459" d="M375.46,113.327c-.576,2.782-1.026,5.567-1.6,8.35-.563,2.721-.881,3.038-3.792,3.038-2.023,0-2.821-.128-2.363-2.342.616-2.973,1.371-6.011,1.987-8.985l7.185-34.734c.367-1.772.71-3.733.871-5.126.053-.253.056-.886.109-1.138.117-.569.359-.823.93-.823s3.932.569,4.6.7c.72.19,1.453.317,1.322.949a1.827,1.827,0,0,1-.549.823,3.29,3.29,0,0,0-.939,2.089c-.416,1.707-.782,3.479-1.136,5.186ZM391.913,96.5c1.107,1.076,2.828,2.848,2.671,3.607-.221,1.076-2.936,3.479-4.011,3.479a1.482,1.482,0,0,1-1.171-.759,65.371,65.371,0,0,0-8.449-8.1c-.439-.316-1-.7-.864-1.328.21-1.013,2.645-3.607,3.658-3.607.947,0,4.884,3.607,6.682,5.315.478.443,1.019.885,1.484,1.391m8.609-13.476c-.171.821-2.41,2.468-3.294,2.468-.381,0-.6-.444-.742-.7a40.131,40.131,0,0,0-3.205-5c-.2-.252-.452-.568-.386-.884.144-.7,2.484-2.216,3.116-2.216.7,0,4.656,5.631,4.512,6.328m5.416-7.213c.351.443,1.817,2.531,1.7,3.1-.17.822-2.409,2.467-3.231,2.467-.379,0-.618-.379-.741-.7a39.494,39.494,0,0,0-3.268-5c-.151-.191-.466-.506-.4-.822.144-.7,2.5-2.278,3.129-2.278.57,0,2.424,2.656,2.813,3.226" transform="translate(34.755 12.239)" fill="#75a7e9"/>
  </g>
</svg>
